<?xml version="1.0" standalone="no"?>
<!DOCTYPE svg PUBLIC "-//W3C//DTD SVG 20010904//EN"
 "http://www.w3.org/TR/2001/REC-SVG-20010904/DTD/svg10.dtd">
<svg version="1.0" xmlns="http://www.w3.org/2000/svg"
 width="784.000000pt" height="784.000000pt" viewBox="0 0 784.000000 784.000000"
 preserveAspectRatio="xMidYMid meet">
<metadata>
Created by potrace 1.14, written by Peter Selinger 2001-2017
</metadata>
<g transform="translate(0.000000,784.000000) scale(0.100000,-0.100000)"
fill="#000000" stroke="none">
<path d="M420 3920 l0 -3920 3500 0 3500 0 0 784 0 784 -2657 0 -2658 0 0 503
0 504 1330 1 c1197 1 1438 4 1555 18 19 3 60 8 90 11 30 4 89 13 130 21 41 8
89 17 105 20 81 11 300 74 435 124 47 18 91 32 98 33 6 0 12 4 12 9 0 4 4 8
10 8 5 0 40 14 77 31 38 17 77 35 88 40 11 5 27 13 35 18 8 6 56 33 105 62
107 61 222 140 325 223 71 57 266 246 320 311 87 104 130 164 238 330 7 11 15
28 18 38 4 9 11 17 17 17 6 0 7 3 4 7 -4 3 -2 12 3 18 16 19 89 172 127 265
77 190 143 441 168 645 17 133 20 192 19 390 -1 210 -7 332 -17 365 -2 8 -12
60 -20 115 -22 138 -40 217 -79 337 -18 57 -33 105 -33 108 -1 3 -7 19 -14 35
-6 17 -17 44 -23 60 -13 35 -142 301 -161 330 -85 136 -198 294 -262 364 -326
360 -684 594 -1154 752 -63 21 -117 37 -119 34 -3 -3 -10 -1 -16 4 -16 12
-331 83 -353 80 -5 -1 -10 0 -13 1 -3 1 -18 4 -35 5 -16 2 -52 6 -80 10 -27 4
-68 10 -90 13 -22 3 -1049 7 -2282 9 l-2243 4 0 -3921z m4257 2346 c133 -10
240 -32 338 -69 17 -7 33 -11 38 -9 4 1 7 -2 7 -8 0 -5 6 -10 13 -10 30 0 186
-92 246 -145 91 -80 189 -194 219 -255 7 -14 21 -40 32 -57 11 -18 17 -33 14
-33 -4 0 -2 -6 4 -12 16 -20 67 -178 77 -243 22 -133 22 -366 -1 -437 -3 -10
-7 -30 -10 -45 -19 -111 -92 -273 -173 -381 -98 -129 -202 -216 -351 -291 -55
-28 -100 -48 -100 -45 0 2 -10 -1 -22 -8 -13 -7 -34 -14 -47 -16 -14 -2 -32
-7 -40 -12 -9 -4 -63 -16 -121 -26 -98 -17 -197 -18 -1400 -19 l-1295 0 -3
1062 -2 1062 27 3 c52 6 2472 0 2550 -6z"/>
</g>
</svg>
