<svg xmlns="http://www.w3.org/2000/svg" xmlns:xlink="http://www.w3.org/1999/xlink" width="54" height="57" viewBox="0 0 54 57">
  <defs>
    <clipPath id="clip-path">
      <rect id="Rect치ngulo_74" data-name="Rect치ngulo 74" width="54" height="57" transform="translate(-0.444 0)" fill="none"/>
    </clipPath>
  </defs>
  <g id="Logo_UNAM" data-name="Logo UNAM" transform="translate(0.444)" clip-path="url(#clip-path)">
    <g id="logo-unam" transform="translate(2.283 -0.152)">
      <path id="Trazado_362" data-name="Trazado 362" d="M37.143,28.875V17.258a.086.086,0,0,0-.08-.08H14.669a.086.086,0,0,0-.08.08V28.915A20.436,20.436,0,0,0,17.9,39.892a14.5,14.5,0,0,0,7.944,6.068h.04a14.06,14.06,0,0,0,7.9-6.068,20.369,20.369,0,0,0,3.353-11.018h0m-.439-.08h0c-.2,8.024-4.631,14.85-10.818,16.646-6.187-1.8-10.658-8.583-10.818-16.606V17.618H36.7Z" transform="translate(-1.455 -1.969)" fill="#f1f1f1"/>
      <path id="Trazado_363" data-name="Trazado 363" d="M26.076,42.967h0c4.83-1.8,8.3-7.5,8.463-13.932V20.452a.086.086,0,0,0-.08-.08H17.733a.086.086,0,0,0-.08.08V29c.16,6.427,3.633,12.175,8.423,13.972m.04-.519c-4.551-1.8-7.824-7.305-7.984-13.453V21.051a.643.643,0,0,0,.16.279c.12.2.4.719.4.719s.04.24-.08.279c-.08.04.12.16.2.279.08.08.24.4.359.4.12.04.16-.12.08-.279l-.279-.559a1.431,1.431,0,0,0-.16-.439c-.08-.24-.2-.519-.2-.519s.519.12.6.439c.04.12.2.878.359,1.317a3.011,3.011,0,0,0,.4.679,1.967,1.967,0,0,0,1,.719c.439.12.958-.16,1.2,0a7.793,7.793,0,0,0,.918.679c.279.08,1.078.24,1.2.559.16.319.559.359.719.4.2.04.838.279.838.878l-.519,1.078a1.631,1.631,0,0,0-.439.8,1.213,1.213,0,0,0,.12,1.2,3.863,3.863,0,0,1,.679,1.8c.04.519.519.559.838.8s0,.439-.2.918-.08,1.477-.279,2.116a4.528,4.528,0,0,0-.4,1.357,3.785,3.785,0,0,1-.16,1.517,3.094,3.094,0,0,0-.08,1.357,2.191,2.191,0,0,0,.4,1.477c.319.4,1.078.6.958-.04a2.641,2.641,0,0,1,.4-1.876l.4-.4a1,1,0,0,1,.319-.878c.4-.279.639-.439.4-.559-.24-.08,0-.319.24-.319s.319.08.838-.519a3.975,3.975,0,0,1,1.2-1.038c.519-.279.719-.878,1.038-1.2a2.935,2.935,0,0,1,1.237-.679.77.77,0,0,0,.559-.838c0-.439-.12-.719.16-1.158s.12-.519.359-.758c-.679,5.269-3.752,9.82-7.784,11.417M34.06,28.875V29c0,.24-.04.519-.04.758-.24-.24-.6-.4-.838-.639a3.2,3.2,0,0,0-.719-.559.535.535,0,0,0-.559-.12c-.359.08-.639,0-.719-.359s-.04-.719-.4-.878a7.615,7.615,0,0,1-.838-.6c-.24-.2-.519-.559-.6-.559a4.347,4.347,0,0,0-.758.04,1.159,1.159,0,0,0-.958-.24s-.359-.559-.719-.24c-.4.279-.719.479-.918.2-.24-.279-.6-.16-.878-.12-.24.04-.479-.4-.559-.6s0-.479-.08-.479-.479.12-.719-.08-.12-.4-.04-.559a1.947,1.947,0,0,0,.16-.918l-.279-.04s-.359-.08-.4.2a.78.78,0,0,1-.878.4,1.075,1.075,0,0,1-.758-.679,1.268,1.268,0,0,1-.04-.758c.08-.2-.24-.559-.319-.639s-.12.04-.279-.24a1.8,1.8,0,0,0-.359-.4H34.06Z" transform="translate(-1.686 -2.209)" fill="#f1f1f1"/>
      <path id="Trazado_364" data-name="Trazado 364" d="M19.876,7.2a.91.91,0,0,0-1.078.12l-.2.2a1.262,1.262,0,0,0-1,.319.751.751,0,0,0-.04.719A11.792,11.792,0,0,1,18,9.794v.04s.679.679.4,1.277c-.319.679-.24.838.12,1.038.279.16.439.359.439,1v.04c0,.479,0,.878.24,1.118a.636.636,0,0,0,.479.16.419.419,0,0,0,.359-.2,2.44,2.44,0,0,0,.12-1.677c-.08-.359-.279-1.2,0-1.4.319-.24.439-.279.6-.12,0,0,.04.04.04,0a.423.423,0,0,0,.4-.4.577.577,0,0,0-.08-.279h0a.147.147,0,0,1,.12.04.436.436,0,0,0,.479-.16.418.418,0,0,0,.04-.479,5.828,5.828,0,0,0-.958-1.4l-.12-.08c-.2-.2-.2-.2-.2-.359.08-.279-.16-.559-.6-.758m.878,3.353c0,.04,0,.04.04.08-.359-.16-.679.12-.878.24-.439.319-.319,1.118-.16,1.8a2.146,2.146,0,0,1-.04,1.357c0,.04-.04.04-.08.04a.3.3,0,0,1-.2-.04c-.12-.12-.12-.479-.12-.838v-.04c0-.758-.16-1.118-.639-1.357a.307.307,0,0,1-.12-.08,2.692,2.692,0,0,1,.16-.479,1.663,1.663,0,0,0-.4-1.677c-.04-.16-.16-.479-.4-1.2q-.12-.24,0-.359c.12-.16.479-.16.679-.16h.08a1.006,1.006,0,0,0,.439-.319.507.507,0,0,1,.6,0c.359.16.439.319.4.4-.04.359.04.439.319.679l.12.08a5.844,5.844,0,0,1,.838,1.277v.04h-.08a.5.5,0,0,0-.519.08.514.514,0,0,0-.04.479" transform="translate(-1.673 -1.211)" fill="#f1f1f1"/>
      <path id="Trazado_365" data-name="Trazado 365" d="M19.178,8.805a.359.359,0,1,0,.359.359.335.335,0,0,0-.359-.359" transform="translate(-1.773 -1.34)" fill="#f1f1f1"/>
      <path id="Trazado_366" data-name="Trazado 366" d="M15.2,8.974c-.08,0-1.517.4-1.517,1.357a1,1,0,0,0,.958,1.038c.04,0,.04,0,.08-.04v-.08a.548.548,0,0,1-.16-.439c.04-.12.16-.2.319-.319s.359-.24.359-.439a2.572,2.572,0,0,1,.12-1.038v-.08a.3.3,0,0,1-.16.04m-1.038,1.717a.8.8,0,0,1-.08-.359c0-.359.359-.6.719-.8a1.315,1.315,0,0,0,0,.559.3.3,0,0,1-.16.08,1.023,1.023,0,0,0-.479.519" transform="translate(-1.387 -1.35)" fill="#f1f1f1"/>
      <path id="Trazado_367" data-name="Trazado 367" d="M16.1,10.606a5.43,5.43,0,0,0-1,.6c-.04,0-.04.04-.04.08a.039.039,0,0,0,.04.04,16.81,16.81,0,0,0,2.2.359.981.981,0,0,0,.679-.519,1.243,1.243,0,0,0-.24-1.118c-.479-.958-.8-1.677-.8-1.677,0-.04-.04-.04-.08-.04A1.7,1.7,0,0,0,15.5,10.206c0,.04.04.04.08.04h.559c.08.04.2.08.2.12s0,.12-.24.24m.639-.279c-.04-.319-.4-.439-.519-.479H15.9a1.257,1.257,0,0,1,.8-1.078c.12.279.359.8.679,1.437v.04c.16.24.319.519.2.758a.452.452,0,0,1-.359.279,6.071,6.071,0,0,1-1.2-.2,2.289,2.289,0,0,0,.279-.16.625.625,0,0,0,.439-.6" transform="translate(-1.491 -1.304)" fill="#f1f1f1"/>
      <path id="Trazado_368" data-name="Trazado 368" d="M18.9,15.124q0-.06-.12-.12l-.359-.2h0a.472.472,0,0,0-.4.16L16.345,16.2c-.04.04-.2.16-.16.279,0,.04.04.08.16.12.24.04,1,.12,1.038.12a.882.882,0,0,0,.519-.16c.12-.16.918-1.038.918-1.078s.12-.2.08-.359m-1.317,1.158a.87.87,0,0,1-.24.04l-.479-.04,1.357-.958.04-.04a.039.039,0,0,1,.04-.04l.12.08c-.24.279-.719.838-.838.958" transform="translate(-1.575 -1.791)" fill="#f1f1f1"/>
      <path id="Trazado_369" data-name="Trazado 369" d="M18.37,16.8c.279.04.639.08.679.08s.279.04.439-.319l.439-.838c0-.04.08-.16.04-.24a.178.178,0,0,0-.16-.12,1.259,1.259,0,0,0-.319-.08s-.279-.08-.4.12c-.12.16-.838,1.038-.838,1.038,0,.04-.12.16-.08.279a.235.235,0,0,0,.2.08m.679-.319a1.755,1.755,0,0,1-.359-.04c.2-.24.519-.639.639-.8a.309.309,0,0,1,.12.04c-.12.2-.359.719-.359.719,0,.04,0,.08-.04.08" transform="translate(-1.724 -1.825)" fill="#f1f1f1"/>
      <path id="Trazado_370" data-name="Trazado 370" d="M20.165,16.883h.519a.364.364,0,0,0,.359-.4v-.958a.431.431,0,0,0-.319-.16H20.4a.315.315,0,0,0-.279.2c-.04.16-.359.838-.359.838a.386.386,0,0,0,0,.319.42.42,0,0,0,.4.16m.479-.4h-.479c.08-.16.24-.519.319-.719h.2l-.04.719Z" transform="translate(-1.842 -1.833)" fill="#f1f1f1"/>
      <path id="Trazado_371" data-name="Trazado 371" d="M22.81,16.757l.479-.04c.04,0,.08,0,.12-.08a.338.338,0,0,0,0-.279c-.12-.279-.679-1.437-.719-1.477h0s-.12-.16-.24-.12h0l-.319.2c-.08.04-.16.12-.12.319.08.24.4,1.237.4,1.277h0a.333.333,0,0,0,.4.2m-.359-1.517c.12.279.4.838.519,1.118h-.2c-.04-.2-.24-.8-.319-1.118Z" transform="translate(-2.012 -1.787)" fill="#f1f1f1"/>
      <path id="Trazado_372" data-name="Trazado 372" d="M21.475,16.867c.16,0,.679-.04.679-.04s.12,0,.16-.08a.251.251,0,0,0,0-.24l-.4-1.2h0c-.04-.08-.12-.2-.279-.12-.12.04-.319.08-.319.12h0c-.04,0-.08.04-.08.24,0,.12.04,1.038.04,1.078-.04.08.04.279.2.24m.16-.4c0-.319-.04-.679-.04-.838h0l.279.838Z" transform="translate(-1.955 -1.818)" fill="#f1f1f1"/>
      <path id="Trazado_373" data-name="Trazado 373" d="M23.861,16.629c.2-.04.479-.08.519-.08a.27.27,0,0,0,.24-.12.49.49,0,0,0-.04-.4c-.24-.439-1.038-1.717-1.078-1.8a.276.276,0,0,0-.16-.12.22.22,0,0,0-.2.08l-.319.279a.317.317,0,0,0-.08.4c.12.24.758,1.557.758,1.6h0c.08.04.16.2.359.16m-.719-1.916.12-.12c.24.359.758,1.237.958,1.557-.08,0-.24.04-.359.04-.08-.16-.6-1.2-.719-1.477" transform="translate(-2.066 -1.739)" fill="#f1f1f1"/>
      <path id="Trazado_374" data-name="Trazado 374" d="M12.772,30.827c-.838-.4-1.637-.08-1.637.679,0,1.756,3.593,1.477,2.994-1.517-.319-1.717-1.4-3.952-1.637-7.185-.279-3.233,1.477-4.311,1.477-4.311v-.838c-2.754,1.357-2.2,7.225-1.4,9.98.838,2.754.2,3.194.2,3.194" transform="translate(-1.196 -2.005)" fill="#f1f1f1"/>
      <path id="Trazado_375" data-name="Trazado 375" d="M42.223,31.505c0-.758-.8-1.078-1.637-.679,0,0-.6-.439.2-3.194.838-2.754,1.357-8.662-1.4-9.98v.838s1.756,1.078,1.477,4.311-1.317,5.469-1.637,7.185c-.559,2.994,2.994,3.233,2.994,1.517" transform="translate(-3.302 -2.005)" fill="#f1f1f1"/>
      <path id="Trazado_376" data-name="Trazado 376" d="M11.377,34.53,9.7,35.927c-1.956-1.517-2.794.279-2.794.279a3.024,3.024,0,0,1,1.317.08c-1.517.4-1.118,1.357-1.118,1.357s1.557-.918,2.2.12A2.012,2.012,0,0,1,9.1,40.2c2.555,0,1.717-3.433,1.717-3.433l2.275-2.235Z" transform="translate(-0.878 -3.273)" fill="#f1f1f1"/>
      <path id="Trazado_377" data-name="Trazado 377" d="M45.857,36.206s-.838-1.8-2.794-.279l-1.717-1.4H39.709l2.275,2.235S41.146,40.2,43.7,40.2a2.012,2.012,0,0,1-.2-2.435c.639-1.078,2.2-.12,2.2-.12s.359-.958-1.118-1.357a1.861,1.861,0,0,1,1.277-.08" transform="translate(-3.343 -3.273)" fill="#f1f1f1"/>
      <path id="Trazado_378" data-name="Trazado 378" d="M14.063,20.521l.04-1.357a.867.867,0,0,1-.519.6c-.24.16-.12.319-.12.319a.571.571,0,0,1,.6.439" transform="translate(-1.369 -2.118)" fill="#f1f1f1"/>
      <path id="Trazado_379" data-name="Trazado 379" d="M13.757,24.36c.08.918.359.6.359.6s-.08-1.517-.08-1.836c-.04-.279-.918-.16-.958.16,0,.319.16,1.637.16,1.637l.279-.04-.04-1.158c-.04,0,.2-.279.279.639" transform="translate(-1.342 -2.404)" fill="#f1f1f1"/>
      <path id="Trazado_380" data-name="Trazado 380" d="M13.995,27.8c.24.319.279-1.237.2-1.517,0,0-.679-.2-.6.16a3.085,3.085,0,0,0,.4,1.357" transform="translate(-1.38 -2.649)" fill="#f1f1f1"/>
      <path id="Trazado_381" data-name="Trazado 381" d="M13.078,21.511c0,.319.918.2.918.2v-.479c0-.04-.918-.16-.918.279" transform="translate(-1.342 -2.27)" fill="#f1f1f1"/>
      <path id="Trazado_382" data-name="Trazado 382" d="M14,22.49v-.479s-.918-.16-.918.319c0,.279.918.16.918.16" transform="translate(-1.342 -2.33)" fill="#f1f1f1"/>
      <path id="Trazado_383" data-name="Trazado 383" d="M16.745,40.679a.279.279,0,1,0-.279.279.273.273,0,0,0,.279-.279" transform="translate(-1.575 -3.714)" fill="#f1f1f1"/>
      <path id="Trazado_384" data-name="Trazado 384" d="M40.247,37.378a.279.279,0,1,0,.279.279.273.273,0,0,0-.279-.279" transform="translate(-3.362 -3.487)" fill="#f1f1f1"/>
      <path id="Trazado_385" data-name="Trazado 385" d="M39.491,37.787a.279.279,0,1,0-.279.279.273.273,0,0,0,.279-.279" transform="translate(-3.284 -3.497)" fill="#f1f1f1"/>
      <path id="Trazado_386" data-name="Trazado 386" d="M38.541,37.96a.279.279,0,1,0-.279.279.3.3,0,0,0,.279-.279" transform="translate(-3.213 -3.51)" fill="#f1f1f1"/>
      <path id="Trazado_387" data-name="Trazado 387" d="M13.467,43.21l.16-1.717s-.16-.319-.639-.08l-.08,1.277s-.279.479-.918-.08l.08-1.317a.452.452,0,0,0-.6-.08l-.12,1.756a1.491,1.491,0,0,0,2.116.24" transform="translate(-1.212 -3.77)" fill="#f1f1f1"/>
      <path id="Trazado_388" data-name="Trazado 388" d="M12.547,42.526a.183.183,0,0,0,.2-.16l.04-.559a.183.183,0,0,0-.16-.2c-.08,0-.2.08-.2.16l-.04.559a.183.183,0,0,0,.16.2" transform="translate(-1.29 -3.805)" fill="#f1f1f1"/>
      <path id="Trazado_389" data-name="Trazado 389" d="M16.067,43.608l.12-1.637s-.12-.319-.6-.08l-.08,1.238s-.279.479-.878-.04l.08-1.277a.412.412,0,0,0-.559-.08l-.08,1.677a1.429,1.429,0,0,0,2,.2" transform="translate(-1.416 -3.809)" fill="#f1f1f1"/>
      <path id="Trazado_390" data-name="Trazado 390" d="M15.182,42.964a.265.265,0,0,0,.2-.16l.04-.519a.16.16,0,1,0-.319,0l-.04.519c-.04.08.04.16.12.16" transform="translate(-1.49 -3.844)" fill="#f1f1f1"/>
      <path id="Trazado_391" data-name="Trazado 391" d="M18.417,43.8l.04-.838s-.08-.439-.479-.12l-.04.4s-.24.319-.2-.24l.04-.519s-.12-.16-.279.08v.679a.255.255,0,0,1-.319,0l.08-.958s-.12-.4-.519-.08l-.08,1.477c-.04-.08.559.958,1.756.12" transform="translate(-1.611 -3.84)" fill="#f1f1f1"/>
      <path id="Trazado_392" data-name="Trazado 392" d="M12.558,40.032a.279.279,0,1,0-.279.279.3.3,0,0,0,.279-.279" transform="translate(-1.261 -3.665)" fill="#f1f1f1"/>
      <path id="Trazado_393" data-name="Trazado 393" d="M14.069,40.247a.279.279,0,1,0-.279.279.3.3,0,0,0,.279-.279" transform="translate(-1.374 -3.681)" fill="#f1f1f1"/>
      <path id="Trazado_394" data-name="Trazado 394" d="M15.234,40.42a.279.279,0,1,0-.279.279c.16.04.279-.12.279-.279" transform="translate(-1.462 -3.694)" fill="#f1f1f1"/>
      <path id="Trazado_395" data-name="Trazado 395" d="M13.812,35.177v1l.639.559c0-.04.359-1.277-.639-1.557" transform="translate(-1.397 -3.322)" fill="#f1f1f1"/>
      <path id="Trazado_396" data-name="Trazado 396" d="M14.686,37.923c-.08.08-.2.279-.279-.04-.08-.359-.359-.319-.519-.319s-.359.639-.479.2-.2-.639-.719-.559v1.038l2.635.6s0-.719-.12-.8c-.16-.16-.479-.24-.519-.12" transform="translate(-1.313 -3.473)" fill="#f1f1f1"/>
      <path id="Trazado_397" data-name="Trazado 397" d="M15.364,39.358a15.488,15.488,0,0,0-2.675-.6v.4l2.754.639a.762.762,0,0,0-.08-.439" transform="translate(-1.313 -3.591)" fill="#f1f1f1"/>
      <path id="Trazado_398" data-name="Trazado 398" d="M41.855,42.97l-.12-1.756a.452.452,0,0,0-.6.08l.08,1.317c-.6.559-.918.08-.918.08l-.08-1.277c-.519-.24-.639.08-.639.08l.16,1.717a1.491,1.491,0,0,0,2.116-.24" transform="translate(-3.333 -3.77)" fill="#f1f1f1"/>
      <path id="Trazado_399" data-name="Trazado 399" d="M40.612,42.367a.181.181,0,0,0,.359-.04l-.04-.559a.181.181,0,1,0-.359.04Z" transform="translate(-3.408 -3.805)" fill="#f1f1f1"/>
      <path id="Trazado_400" data-name="Trazado 400" d="M39.192,43.365l-.08-1.677c-.4-.2-.559.08-.559.08l.08,1.277c-.6.519-.878.04-.878.04l-.08-1.238c-.479-.24-.6.08-.6.08l.16,1.637a1.333,1.333,0,0,0,1.956-.2" transform="translate(-3.145 -3.805)" fill="#f1f1f1"/>
      <path id="Trazado_401" data-name="Trazado 401" d="M38.142,42.083a.172.172,0,0,0-.16.16l.04.519a.16.16,0,1,0,.319,0l-.04-.519a.172.172,0,0,0-.16-.16" transform="translate(-3.213 -3.84)" fill="#f1f1f1"/>
      <path id="Trazado_402" data-name="Trazado 402" d="M35.351,43.191l-.04-.4c-.4-.319-.479.12-.479.12l.04.838c1.2.838,1.756-.2,1.756-.2l-.08-1.477c-.4-.319-.519.08-.519.08l.08.958a.255.255,0,0,1-.319,0v-.679c-.12-.24-.279-.08-.279-.08l.04.519c0,.6-.2.319-.2.319" transform="translate(-2.976 -3.83)" fill="#f1f1f1"/>
      <path id="Trazado_403" data-name="Trazado 403" d="M4.2,7.379a.4.4,0,0,0,.279-.519L3.644,4.7l-.24.08L4.243,6.86a.209.209,0,0,1-.08.319c-.12.04-.2,0-.279-.16L3.045,4.944l-.24.08L3.644,7.18a.4.4,0,0,0,.559.2" transform="translate(-0.57 -1.032)" fill="#f1f1f1"/>
      <path id="Trazado_404" data-name="Trazado 404" d="M5.317,6.984,4.639,4.669h0l1,2.235.319-.12L5.2,4.23,5,4.27l.639,2.2h0L4.719,4.35l-.359.12.758,2.555Z" transform="translate(-0.687 -0.996)" fill="#f1f1f1"/>
      <path id="Trazado_405" data-name="Trazado 405" d="M6.745,6.609,6.066,4.014l-.24.04.679,2.595Z" transform="translate(-0.797 -0.98)" fill="#f1f1f1"/>
      <path id="Trazado_406" data-name="Trazado 406" d="M7.712,6.343,7.432,3.669l-.24.04.319,2.435h0l-.8-2.315-.24.04.918,2.555Z" transform="translate(-0.846 -0.954)" fill="#f1f1f1"/>
      <path id="Trazado_407" data-name="Trazado 407" d="M9.056,6.088l-.04-.2-.4.08-.2-1.078.4-.08-.04-.2-.4.08-.2-.958.4-.08-.04-.2-.639.12.519,2.635Z" transform="translate(-0.953 -0.938)" fill="#f1f1f1"/>
      <path id="Trazado_408" data-name="Trazado 408" d="M9.779,5.953,9.54,4.676l.16-.04c.12-.04.2,0,.2.12l.2,1.118.24-.04-.2-1.118c-.04-.2-.16-.2-.319-.2h0c.2-.04.24-.12.2-.319L9.9,3.518c-.04-.279-.2-.279-.439-.24l-.439.08L9.5,5.993ZM9.34,3.518l.12-.04c.12,0,.2,0,.24.16l.12.6c.04.16-.04.2-.16.24l-.16.04Z" transform="translate(-1.037 -0.924)" fill="#f1f1f1"/>
      <path id="Trazado_409" data-name="Trazado 409" d="M10.611,3.822a.8.8,0,0,0,.16.319l.439.559c.08.08.08.16.12.24l.04.359c0,.12,0,.2-.12.24-.12,0-.16-.04-.2-.16l-.04-.359-.24.04.04.359a.332.332,0,0,0,.439.319.351.351,0,0,0,.319-.439l-.08-.4a.762.762,0,0,0-.12-.319l-.479-.6a.567.567,0,0,1-.08-.24l-.04-.279c0-.12,0-.2.12-.2.12-.04.16.04.16.16l.04.319.24-.04-.04-.319a.336.336,0,0,0-.439-.319.351.351,0,0,0-.319.439Z" transform="translate(-1.15 -0.908)" fill="#f1f1f1"/>
      <path id="Trazado_410" data-name="Trazado 410" d="M12.422,5.566l-.4-2.675-.24.04.359,2.635Z" transform="translate(-1.245 -0.896)" fill="#f1f1f1"/>
      <path id="Trazado_411" data-name="Trazado 411" d="M13.362,5.436a.369.369,0,0,0,.359-.479l-.24-1.8c-.04-.279-.12-.439-.479-.4l-.4.04.319,2.675ZM13,2.961c.16,0,.2.04.24.2L13.482,5c.04.16-.04.2-.2.24h-.12L12.883,3Z" transform="translate(-1.306 -0.886)" fill="#f1f1f1"/>
      <path id="Trazado_412" data-name="Trazado 412" d="M14.48,4.546l.439-.04.2.719.24-.04L14.639,2.59H14.28L14.2,5.3l.24-.04Zm0-1.756h0l.359,1.517-.359.04Z" transform="translate(-1.426 -0.873)" fill="#f1f1f1"/>
      <path id="Trazado_413" data-name="Trazado 413" d="M16.177,5.134c.319-.04.4-.2.359-.479l-.16-1.8c-.04-.279-.12-.439-.439-.4l-.4.04.24,2.675ZM15.9,2.659c.16,0,.2.04.24.2L16.3,4.7c0,.16-.04.2-.2.24h-.12l-.2-2.275Z" transform="translate(-1.527 -0.863)" fill="#f1f1f1"/>
      <path id="Trazado_414" data-name="Trazado 414" d="M18.049,4.959l-.2-2.4h0l.479,2.355h.359l-.2-2.675h-.2l.16,2.275h0l-.479-2.235H17.61l.2,2.675Z" transform="translate(-1.682 -0.847)" fill="#f1f1f1"/>
      <path id="Trazado_415" data-name="Trazado 415" d="M19.44,4.114l.439-.04.16.719h.24l-.6-2.635H19.36l-.24,2.715h.24Zm.12-1.756h0l.279,1.517-.359.04Z" transform="translate(-1.796 -0.841)" fill="#f1f1f1"/>
      <path id="Trazado_416" data-name="Trazado 416" d="M21.067,4.783c.24,0,.359-.16.359-.4v-.4h-.24v.359c0,.12-.04.16-.12.16-.12,0-.16-.04-.16-.16l-.08-1.956c0-.12.04-.16.12-.16s.12.04.16.16v.359h.24V2.388c0-.24-.16-.359-.4-.359s-.359.16-.359.4l.08,2c0,.24.12.359.4.359" transform="translate(-1.906 -0.831)" fill="#f1f1f1"/>
      <rect id="Rect치ngulo_73" data-name="Rect치ngulo 73" width="0.24" height="2.675" transform="translate(19.786 1.204) rotate(-2.315)" fill="#f1f1f1"/>
      <path id="Trazado_417" data-name="Trazado 417" d="M23.1,4.7c.319,0,.439-.2.4-.479l-.04-1.836a.383.383,0,0,0-.439-.439c-.319,0-.439.2-.4.479l.04,1.836c0,.279.08.439.439.439m-.08-2.515c.16,0,.2.08.2.24l.04,1.8c0,.16-.04.24-.16.24-.16,0-.2-.08-.2-.24l-.04-1.8c-.04-.12,0-.24.16-.24" transform="translate(-2.058 -0.825)" fill="#f1f1f1"/>
      <path id="Trazado_418" data-name="Trazado 418" d="M24.281,4.657l-.04-2.4h0l.359,2.4h.359l-.04-2.715h-.24l.08,2.315h-.04L24.4,1.982h-.359l.04,2.675Z" transform="translate(-2.166 -0.825)" fill="#f1f1f1"/>
      <path id="Trazado_419" data-name="Trazado 419" d="M25.745,3.9h.439l.12.758h.24l-.4-2.675h-.319L25.466,4.66h.24Zm.2-1.756h0l.2,1.557h-.4Z" transform="translate(-2.273 -0.828)" fill="#f1f1f1"/>
      <path id="Trazado_420" data-name="Trazado 420" d="M27.615,4.417h-.4V1.942h-.24V4.617h.639Z" transform="translate(-2.386 -0.825)" fill="#f1f1f1"/>
      <path id="Trazado_421" data-name="Trazado 421" d="M28.889,3.9h.439l.08.758h.24l-.359-2.675h-.319L28.53,4.66h.24Zm.24-1.756h0l.16,1.557h-.4Z" transform="translate(-2.503 -0.828)" fill="#f1f1f1"/>
      <path id="Trazado_422" data-name="Trazado 422" d="M30.483,4.7c.2,0,.439-.08.439-.359L31,2.029h-.24l-.08,2.235c0,.2-.08.24-.2.24s-.2-.08-.16-.24l.08-2.235h-.24l-.08,2.315c-.04.279.2.359.4.359" transform="translate(-2.619 -0.831)" fill="#f1f1f1"/>
      <path id="Trazado_423" data-name="Trazado 423" d="M31.668,4.743h.24l.12-2.475h.279v-.2l-.8-.04v.2l.279.04Z" transform="translate(-2.727 -0.831)" fill="#f1f1f1"/>
      <path id="Trazado_424" data-name="Trazado 424" d="M33.072,4.826c.319.04.439-.16.439-.439l.12-1.836c0-.279-.08-.439-.4-.479a.383.383,0,0,0-.439.439l-.12,1.836c-.04.279.04.439.4.479m-.16-.479.08-1.8c0-.16.04-.24.2-.24s.16.12.16.279l-.12,1.8c0,.16-.04.24-.2.24-.12-.04-.16-.12-.12-.279" transform="translate(-2.813 -0.834)" fill="#f1f1f1"/>
      <path id="Trazado_425" data-name="Trazado 425" d="M34.414,2.477h0l.16,2.4.359.04.16-2.675h-.2l-.16,2.275h0L34.574,2.2l-.359-.04-.16,2.715h.2Z" transform="translate(-2.918 -0.841)" fill="#f1f1f1"/>
      <path id="Trazado_426" data-name="Trazado 426" d="M35.921,5c.319.04.439-.16.479-.4l.16-1.836c0-.279-.08-.479-.4-.479-.319-.04-.439.16-.479.4l-.16,1.836c-.04.279.04.479.4.479m-.16-.479.16-1.8c0-.16.04-.24.2-.24s.16.12.16.279l-.16,1.8c0,.16-.04.24-.2.24s-.16-.12-.16-.279" transform="translate(-3.027 -0.85)" fill="#f1f1f1"/>
      <path id="Trazado_427" data-name="Trazado 427" d="M37.343,2.617h0l.04,2.515.319.04.519-2.435h0l-.24,2.435.2.04.279-2.675L38.1,2.5l-.519,2.355h0l-.04-2.4-.4-.04L36.9,5.092h.2Z" transform="translate(-3.132 -0.86)" fill="#f1f1f1"/>
      <path id="Trazado_428" data-name="Trazado 428" d="M39.069,4.549l.439.04v.758l.24.04-.08-2.715-.319-.04L38.63,5.268l.24.04Zm.4-1.717h0V4.389l-.359-.04Z" transform="translate(-3.262 -0.876)" fill="#f1f1f1"/>
      <path id="Trazado_429" data-name="Trazado 429" d="M43.5,3.434h0l-.12,2.475.279.04.719-2.4h0l-.439,2.475h.24l.439-2.635-.359-.04-.679,2.315h-.04l.16-2.435-.359-.04L42.86,5.829l.2.04Z" transform="translate(-3.579 -0.919)" fill="#f1f1f1"/>
      <path id="Trazado_430" data-name="Trazado 430" d="M45.355,6.294l.04-.2-.4-.08.24-1.078.359.08.04-.2-.359-.08.2-.958.4.08.04-.2-.639-.12-.559,2.635Z" transform="translate(-3.719 -0.945)" fill="#f1f1f1"/>
      <path id="Trazado_431" data-name="Trazado 431" d="M45.665,6.35l.24.04.479-1.038h0V6.51l.24.08-.04-1.4.6-1.237-.24-.08L46.5,4.913h0l.04-1.118-.24-.04V5.112Z" transform="translate(-3.79 -0.961)" fill="#f1f1f1"/>
      <path id="Trazado_432" data-name="Trazado 432" d="M47.243,6.732l.679-2.595-.24-.08L47,6.652Z" transform="translate(-3.891 -0.983)" fill="#f1f1f1"/>
      <path id="Trazado_433" data-name="Trazado 433" d="M48.1,6.992a.358.358,0,0,0,.479-.24l.12-.359-.24-.08-.12.359c-.04.12-.08.16-.2.12-.08-.04-.12-.08-.08-.2l.6-1.876c.04-.12.08-.16.2-.12.08.04.12.08.08.2l-.12.319.24.08.12-.359a.345.345,0,0,0-.24-.479.358.358,0,0,0-.479.24l-.6,1.916c-.08.24,0,.439.24.479" transform="translate(-3.953 -1.004)" fill="#f1f1f1"/>
      <path id="Trazado_434" data-name="Trazado 434" d="M49.267,7.432c.319.12.479,0,.559-.24L50.5,5.515c.12-.24.08-.439-.24-.6-.319-.12-.479,0-.559.24l-.679,1.677a.391.391,0,0,0,.24.6m0-.519.679-1.677c.04-.16.12-.24.279-.16.16.04.12.16.08.319l-.679,1.677c-.04.12-.12.24-.279.16-.16-.04-.16-.16-.08-.319" transform="translate(-4.038 -1.044)" fill="#f1f1f1"/>
      <path id="Trazado_435" data-name="Trazado 435" d="M1.454,6.4c.479.679.6.838.6,1.357v.16a1.617,1.617,0,0,0,.319,1.2,1.737,1.737,0,0,0,1.317.4,10.15,10.15,0,0,0,1.876-.279,15.491,15.491,0,0,1,3.912-.4,3.915,3.915,0,0,1-3.313.878c-2-.2-4.152-.279-4.91.758-.4.559-.319,1.437.2,2.555,0,.04.04.04.08.04a1.916,1.916,0,0,0,1.2-2.235,7.376,7.376,0,0,1,1.8.439c.12.04.279.08.4.12-1.237.359-2.275.878-2.275,1.437,0,.359.4.479,1.277.878.958.439,1.836.758,2.675,1.158,2.315,1.158,3.992,2.156,4.271,1.916.319-.319-5.229-2.515-3.912-4.431.719-1.078,1.956.359.958.559-1,.24,1.437,2.715,4.311,3.553a4.716,4.716,0,0,1,.918-.719s.439-.319-.2-.479S8.4,13.907,10,12.39c.479-.439.519-.758.319-.958a3.28,3.28,0,0,0,1.357-.838,1.615,1.615,0,0,0,.519-1.078c0-1.038-1.277-2.435-1.756-2.914a93.773,93.773,0,0,1,14.411-1,91.565,91.565,0,0,1,14.77,1.078c-.479.479-1.8,1.916-1.8,2.954a1.521,1.521,0,0,0,.519,1.078,2.844,2.844,0,0,0,.878.6c-.4.24-.639.519-.639.719a1.249,1.249,0,0,0,.8,1.158c.12,1-2.315,2.116-2.994,2.4a5.882,5.882,0,0,1,.838.439,5.567,5.567,0,0,0,3.393-2.475c.519-.679-.8-.319-.8-1s2-1.158,1.6.679c-.359,1.677-2.754,2.715-3.792,3.074a3.763,3.763,0,0,1,.4.4c.04.08.2.319.279.279.12-.04.04-.4.24-.359s.359.12.439-.08.08-.4.24-.279.2.2.359.16c.16-.08-.12-.519.24-.4s.4-.08.319-.279.16-.08.4.08.279-.16.12-.319c-.12-.2.04-.319.24-.12s.6.16.319-.16c-.279-.279.04-.559.359-.319s.279.08.08-.2c-.16-.279-.04-.4.359-.16s.639.16.24-.16-.24-.559.2-.319.958.359.479-.04c-.479-.439-.639-.719-.04-.439.559.279,1,.24.16-.279-.878-.519.439-.04.758.2s.359-.16-.24-.479-.24-.439.559-.04c.758.4.758.04.12-.2s-.918-.719-.12-.319,1.6.439.8.04a2.874,2.874,0,0,1-.719-.439c.24-.08.519,0,1.078.359,1.038.719.04,1.517-.878,1.876a13.6,13.6,0,0,0-3.273,2.036,5.346,5.346,0,0,1-2.715.838,2.442,2.442,0,0,1,.2.479,7.541,7.541,0,0,0,3.513-1,21.356,21.356,0,0,1,4.511-2.156c1.118-.279,2.156-.838.479-2.036a11.14,11.14,0,0,0-1.717-1,.139.139,0,0,0,.08-.04,7.847,7.847,0,0,1,1.8-.439,1.918,1.918,0,0,0,1.2,2.235c.04,0,.08,0,.08-.04.519-1.118.6-1.956.2-2.515-.758-1.038-2.874-.958-4.91-.758-2.275.24-3.233-.758-3.393-.958a2.945,2.945,0,0,1,.838,0,19.116,19.116,0,0,1,2.036.279c1.637.279,3.353.559,4.112-.04a.983.983,0,0,0,.4-.8A4.649,4.649,0,0,1,48.6,6.522c.359-.559.639-1.078.479-1.517a1.424,1.424,0,0,0-.878-.758,40.966,40.966,0,0,0-9.5-2.435A87.283,87.283,0,0,0,24.647.734c-9.341,0-18,1.2-22.674,3.074a1.981,1.981,0,0,0-1.158.958,1.061,1.061,0,0,0,.2,1c.2.24.319.479.439.639m.679-2.235h0C6.764,2.291,15.386,1.093,24.687,1.093c11.377,0,19.72,1.836,23.393,3.433a1.413,1.413,0,0,1,.679.519c.08.279-.16.679-.439,1.2a5.482,5.482,0,0,0-.838,2.036A.742.742,0,0,1,47.2,8.8h-.04a1.5,1.5,0,0,0-.24-.4C45.365,6.841,35.9,5.125,24.807,5.125A93.631,93.631,0,0,0,9.039,6.362a28.579,28.579,0,0,0-4.79,1.2c-.958.359-1.557.719-1.717,1.078a2.094,2.094,0,0,1-.08-.719V7.76c0-.679-.16-.878-.639-1.6a6.821,6.821,0,0,1-.439-.679.655.655,0,0,1-.12-.639c.08-.319.679-.6.878-.679M43.369,8.758c-.719-.12-1.437-.24-2.076-.279a3.9,3.9,0,0,0-3.074.958A6.959,6.959,0,0,1,40.1,6.722c3.593.639,5.908,1.4,6.547,2.036a.365.365,0,0,1,.12.2c0,.04,0,.04-.04.08a11.768,11.768,0,0,1-3.353-.279m-3.393.279.16.08c.2.24,1.277,1.357,3.752,1.078,1.038-.12,3.273-.359,4.231.319a6.061,6.061,0,0,0-2.794.439c-.16.04-.359.12-.519.16a6.929,6.929,0,0,0-5.15-.12,3.112,3.112,0,0,1-1.038-.679,1.528,1.528,0,0,1-.319-.439,2.794,2.794,0,0,1,1.637-.958c0,.08,0,.08.04.12m7.664,1.836a3.56,3.56,0,0,1,.878.12,2.282,2.282,0,0,1-.2,1.637,1.436,1.436,0,0,1-.679-1.756M11.674,9.157c-1.836-1.078-4.351-.6-6.227-.279a13.207,13.207,0,0,1-1.8.24,2.243,2.243,0,0,1-.8-.12v-.08c0-.04.04-.08.12-.2C3.61,8.079,6.085,7.28,9.877,6.642a8.336,8.336,0,0,1,1.8,2.515m-1.836,2a9.19,9.19,0,0,0-2.954-.12c-.4.04-.8.12-1.2.2a10.308,10.308,0,0,1-1.038-.319,5.668,5.668,0,0,0-2.834-.439c.958-.679,3.233-.439,4.231-.319A4.155,4.155,0,0,0,9.8,9.077L9.957,9h0a3.673,3.673,0,0,1,1.717.719c-.04.519-.719,1.078-1.836,1.437M1.654,12.59a2.282,2.282,0,0,1-.2-1.637,8.258,8.258,0,0,1,.878-.16,1.517,1.517,0,0,1-.679,1.8" transform="translate(-0.416 -0.734)" fill="#f1f1f1"/>
      <path id="Trazado_436" data-name="Trazado 436" d="M28.271,14.718h0a1.374,1.374,0,0,0,1.517,1.317A4.618,4.618,0,0,0,32.5,14.758c.16.279.878,1.317,1.477,1.237a.814.814,0,0,0,.6-.639A1.9,1.9,0,0,0,35.935,16a1.9,1.9,0,0,0,1.437-1.118V14.8a.055.055,0,0,0-.08,0,2.642,2.642,0,0,1-2-.2,1.793,1.793,0,0,1-.6-1.517,7.813,7.813,0,0,1,.2-2.116,2.994,2.994,0,0,0,1.237.359c1.357.04,1.637-.8,1.637-.838v-.08l-.04-.04a1.744,1.744,0,0,1-.958-.04q.958-.3,1.317,0a.684.684,0,0,1,.16.6c0,.04,0,.04.04.08h.08c.479-.519.679-.958.519-1.357-.2-.639-1.237-.918-2.235-1.118a2.815,2.815,0,0,1-1.916-1.836.039.039,0,0,0-.04-.04h-.04a2.672,2.672,0,0,0-.8.639l-.918-1.038-.04-.04a.039.039,0,0,0-.04.04,1.4,1.4,0,0,0-.16,1.237,1.331,1.331,0,0,1-.439-.878c0-.04,0-.04-.04-.04h-.08A1.665,1.665,0,0,0,32.1,8.81a3.993,3.993,0,0,1-2.4-.12h-.04l-.04.04a1.164,1.164,0,0,0,.2.918,1.958,1.958,0,0,0,1.477.6,2.575,2.575,0,0,1-2.2.12h-.04c-.04,0-.04.04-.04.08a1.98,1.98,0,0,0,2.4,1.317,3.142,3.142,0,0,1-2.994.758h-.04l-.04.04a1.584,1.584,0,0,0,.719,1.277c.559.319,1.437.16,2.555-.519-.2.519-.878,1.637-3.353,1.4M31.7,10.447a.375.375,0,0,0,.04-.359.3.3,0,0,0-.279-.2,1.78,1.78,0,0,1-1.357-.439.345.345,0,0,1-.12-.24,3.474,3.474,0,0,0,2.355-.04.367.367,0,0,0,.16-.24.351.351,0,0,0-.04-.279A1.4,1.4,0,0,1,32.1,7.413a3.235,3.235,0,0,0,.519.6.363.363,0,0,0,.4,0,.3.3,0,0,0,.08-.4,1.076,1.076,0,0,1-.12-.679l.639.719c-.04.08-.04.12-.08.2a1.178,1.178,0,0,0,.12.918c-1.078.719-1.118,1.357-1.078,1.677a2.121,2.121,0,0,1-1.357.918,1.824,1.824,0,0,1-1.557-.479,2.035,2.035,0,0,0,2.036-.439M34.5,7.293a5.6,5.6,0,0,0,.479.719l-.519.04-.359-.4a1.8,1.8,0,0,1,.4-.359m3.912,2.914c-.04-.04-.08-.12-.12-.16-.4-.319-1-.319-1.876,0a.3.3,0,0,0-.2.279.407.407,0,0,0,.2.319,3.337,3.337,0,0,0,.519.12,2.012,2.012,0,0,1-.758.12,2.428,2.428,0,0,1-1.078-.319,1.269,1.269,0,0,1,.479-.439c.04-.04.12-.08.16-.12a3.253,3.253,0,0,0,.758-1.118c.04,0,.08.04.12.04.519.12,1.8.359,1.916.838a.91.91,0,0,1-.12.439m-1.916,5.15a1.028,1.028,0,0,1-.639.279,1.618,1.618,0,0,1-1.118-.559c-.04-.04-.12-.08-.16-.12a5.975,5.975,0,0,1-.279-.8h.12a1.629,1.629,0,0,0,.6.838,3.188,3.188,0,0,0,1.477.359M33.939,8.052l.24.279a.345.345,0,0,0,.24.12,2.983,2.983,0,0,0,.439-.04.507.507,0,0,1-.8.319c0-.04,0-.04-.04-.08a.75.75,0,0,1-.08-.6m1.517,1.677c-.04.04-.12.08-.16.12a1.5,1.5,0,0,0-.559.559c-.04-.04-.12-.08-.16-.12a2.025,2.025,0,0,1,.758-.639.873.873,0,0,0,.439-.958,1,1,0,0,1,.279.16,2.436,2.436,0,0,1-.6.878M32.861,14.6c-.08-.04-.24-.2-.2-.958a2.05,2.05,0,0,0,.6-.559.971.971,0,0,0,.24.838.551.551,0,0,0,.16.12c-.24.279-.6.639-.8.559m-.04-2.515h0a1.328,1.328,0,0,0,.639-.4,1.375,1.375,0,0,0,.04.359c-.559.918-1.038,1.317-1.317,1.317a4.44,4.44,0,0,1,.639-1.277m1.517,1.6a.492.492,0,0,1-.439-.08c-.24-.24-.12-.878,0-1.317.12-.04.279-.08.4-.12,0,.279-.04.6-.04.958.04.2.04.359.08.559m-.4-4.551a1.032,1.032,0,0,0,.838-.04.944.944,0,0,0,.479-.719h.08l.04.08v.04s.12.6-.24.758a2.067,2.067,0,0,0-.878.758c-.12-.12-.16-.2-.2-.2a.26.26,0,0,0-.359-.08c-.12.04-.16.12-.2.24,0,.04-.12.12-.519.24.04-.2.24-.6.958-1.078h0m.04,5.229a3.843,3.843,0,0,0,.279.719c0,.04-.04.04-.04.08-.08.279-.2.479-.319.479-.2.04-.519-.279-.838-.679a1.765,1.765,0,0,0,.918-.6M33.9,11.8a2.577,2.577,0,0,1-.08-1.038c0-.04,0-.04-.04-.08H33.7a8.406,8.406,0,0,1-.719.639,1.5,1.5,0,0,1-.12-.679.039.039,0,0,1,.04-.04c.639-.16.838-.359.918-.479a4.559,4.559,0,0,0,.719.6,3.465,3.465,0,0,0-.16.838.781.781,0,0,1-.479.24m-2.076.16a.567.567,0,0,0,.08-.24,1.326,1.326,0,0,0,.559-.4,1.269,1.269,0,0,0,.12.359,5.29,5.29,0,0,1-.918,1.277c-.04,0-.08.04-.12.04-1.078.639-1.876.838-2.315.6a1.022,1.022,0,0,1-.4-.519,3.658,3.658,0,0,0,2.994-1.118m.04,1.717a1.166,1.166,0,0,0,.359.08,2.448,2.448,0,0,0,.12.639c-.04,0-.08.04-.12.08a4.321,4.321,0,0,1-2.475,1.237,1.107,1.107,0,0,1-1.078-.559c2.2.08,2.954-.918,3.194-1.477" transform="translate(-2.483 -1.146)" fill="#f1f1f1"/>
      <path id="Trazado_437" data-name="Trazado 437" d="M4.921,42.133c.04-.2.04-.4-.08-.439s-.24.08-.279.16h0a.683.683,0,0,1-.719.319,1.136,1.136,0,0,0-.918.439.586.586,0,0,0-.08.559c.16.319.4.519.519.479.04,0,.12-.04.08-.2v-.08a1.729,1.729,0,0,0-.04-.2.309.309,0,0,1,.12.04.428.428,0,0,0,.479.04.265.265,0,0,0,.08-.279c-.04-.08-.04-.16-.08-.2v-.12s.04-.04.24-.04c.479-.08.639-.08.679-.479m-1.357.6h-.08c.04,0,.04-.04.08,0h0" transform="translate(-0.57 -3.811)" fill="#f1f1f1"/>
      <path id="Trazado_438" data-name="Trazado 438" d="M49.489,41.622a.643.643,0,0,1-.279-.16.7.7,0,0,0-.6-.2c-.16,0-.279.04-.319.16-.12.16-.08.439.16.878.04.12.08.16.08.24a4.591,4.591,0,0,1-.679-.24.361.361,0,0,0-.4,0c-.24.16-.279.719-.279,1.277a2.677,2.677,0,0,0-1.477.8,1.088,1.088,0,0,0-.16-.639.642.642,0,0,0-.439-.12,1.516,1.516,0,0,0-.719.24.991.991,0,0,0-.04-.359.409.409,0,0,0-.24-.2.684.684,0,0,0-.639.16.31.31,0,0,0-.08.319.835.835,0,0,0,.519.519c-.04.04-.04.08-.08.12a.552.552,0,0,0-.12.479c.08.279.479.479.918.639a1.947,1.947,0,0,1-1.836.758,2.145,2.145,0,0,0-2.156-.519l-.16.04c-1.317.319-2.4.559-2.914,1.876a2.9,2.9,0,0,1-.439.758c-.319.4-.559.719-.8,3.194a13.991,13.991,0,0,0-1.836.758,1.435,1.435,0,0,1-.439.08,1.534,1.534,0,0,0-1.2.6.65.65,0,0,1-.6.16.62.62,0,0,0-.639.16.837.837,0,0,1-.479.12c.08-.2.359-.8.878-.918a4.632,4.632,0,0,0,2.315-1.2h0A2.155,2.155,0,0,1,35,50.644c.279-.2.519-.4.359-.8a1.27,1.27,0,0,1,.12-.918c.12-.319.2-.6.04-.8.24-.08.719-.24.838-.479a.506.506,0,0,0,.04-.24,1.224,1.224,0,0,1,.04-.519c.08-.319.16-.679,0-.878a.506.506,0,0,0-.359-.16.6.6,0,0,0-.4-.359.659.659,0,0,0-.6.24.772.772,0,0,0-.6,0,.544.544,0,0,0-.2.479l-.4.639c-.16-.04-.639-.08-1.477.479l-.359.2a3.152,3.152,0,0,0-1.756,1.956c-.12.519-.2.8-.24.918a.873.873,0,0,0-.2-.12c-.2-.12-.439-.2-.639-.319a1.943,1.943,0,0,1-.918-.6c-.439-.6-1.078-.639-1.836-.12a2.451,2.451,0,0,1-2.555.08c-.16-.08-.359-.12-.559-.2a7.23,7.23,0,0,1-2.954-1.637c-.08-.12-.2-.279-.279-.4-.439-.679-.8-1.2-1.717-1.237a1.329,1.329,0,0,0-1.357.24h0a.139.139,0,0,1-.08.04c-.04,0-.08,0-.12-.08-.24-.24-.4-.279-.878.04a4.4,4.4,0,0,0-1.078,1.158c-.04-.04-.08-.04-.08-.08-.359-.8-.719-1.277-1.118-1.4a2.064,2.064,0,0,1-.878-.719,3.446,3.446,0,0,0-.519-.559.632.632,0,0,0-.479-.2c-.279.04-.519.319-.758.639l-.08.08a9.379,9.379,0,0,1-1.118,1,4.243,4.243,0,0,0-.439.359.039.039,0,0,0-.04.04.763.763,0,0,1-.359-.359,6.615,6.615,0,0,0-.918-1.517,1.112,1.112,0,0,0-.2-1c.279,0,.479-.16.679-.519a.49.49,0,0,0,.04-.4c-.12-.2-.4-.279-.918-.319a1.478,1.478,0,0,0-1,.559,2.736,2.736,0,0,0-.878.16.436.436,0,0,0-.16-.479c-.6-.479-1.517.4-1.956.838a1.006,1.006,0,0,0-.319.878h0c-.04,0-.04,0-.08.04a.2.2,0,0,1-.12-.04,1.772,1.772,0,0,0-.519-.08c-.08-.359-.319-1.038-.838-1a.36.36,0,0,0-.2.04v-.16a.641.641,0,0,0-.2-.439.6.6,0,0,0-.439-.16.588.588,0,0,0-.6.6.641.641,0,0,0,.2.439c.04.04.08.08.12.08a.71.71,0,0,0-.279.319.5.5,0,0,0,.16.519c.16.16.4.359.639.559a2.162,2.162,0,0,0-.16.6v.04c-.12.04-.319.16-.319.359a.577.577,0,0,0,.279.4,6.468,6.468,0,0,0,.04.878c-.08.12-.16.279-.04.359a.873.873,0,0,0,.2.12c.04.04.08.08.08.12.12.12.24.279.359.4.04.04.04.08.08.08-.04.2-.08.479.12.519a.816.816,0,0,0,.439,0l.359.24a3.33,3.33,0,0,1,.479.319c0,.2,0,.479.2.439a.992.992,0,0,1,.319-.04,3.582,3.582,0,0,1,.8.758c-.16.2-.719.8-.958.8a.219.219,0,0,0-.24.16,1,1,0,0,0,0,.838c-.12.12-.479.439-.359.719a1.059,1.059,0,0,0,.2.24c.08.08.2.2.2.279,0,.04-.08.08-.16.12-.319.12-.719.319-.8.679a.946.946,0,0,0,.319.878.039.039,0,0,0,.04.04l-.16.2s-.559.12-.359.559.878.439.758-.2l.16-.16a1.156,1.156,0,0,0,.918.2.855.855,0,0,0,.519-.758,6.023,6.023,0,0,0,2.475.479.5.5,0,0,0,.519.16.394.394,0,0,0,.279-.279c.24,0,.8.04,1.277,0a.548.548,0,0,0,.4.2c.2,0,.24-.16.24-.279a1.945,1.945,0,0,0,.279-.12,3.689,3.689,0,0,1,1.517-.2c.04.04.04.08.08.12.24.4.4.559.439.639.04.04.04.04.04.12a.388.388,0,0,0,.04.359.748.748,0,0,0,.439.2h0c.439.04.719.08.918.4l.04.04c.12.16.16.279.319.319.12.04.279-.04.559-.2a.9.9,0,0,1,1,.04c.04.08.279.4.519.4.16,0,.279-.16.359-.439a.72.72,0,0,1,.4-.08,1.707,1.707,0,0,0,1-.279s1-.639,1.6-.958a1.976,1.976,0,0,1,.16.519c.08.519-2.076,1.517-1.237,2.834.12.16.2.12.2.12a.816.816,0,0,1,.12-.758c.24-.24,1.4.08,2-.639a1.191,1.191,0,0,0,1,.838.139.139,0,0,0,.08-.04l.279-1.956a1.609,1.609,0,0,0,.439.559.767.767,0,0,0,.559.08,1.274,1.274,0,0,0,1.517.679c.359,0,.559-.08.6-.2,0-.04.08-.24-.559-.6-.08-.04-.08-.08-.08-.08,0-.04.04-.04.12-.08.24-.04.758.12,1.2.958a1.581,1.581,0,0,0,1.836.8.039.039,0,0,0,.04-.04c0-.04,0-.04-.04-.08-.279-.08-.359-.4-.4-.6a2.663,2.663,0,0,0,1.956.719,1.309,1.309,0,0,0,1-.559v-.08c0-.04-.04-.04-.08-.04a1.19,1.19,0,0,1-1.437-.519c.319-.04.838-.319,1.517-1.158a3.866,3.866,0,0,1,2.116,0,2.751,2.751,0,0,0,.319.12c1.2.4,3.712,1.237,5.389-.08,1.118-.878,1.4-1.437,1.437-1.756v-.2a.7.7,0,0,0,.24.04h.04a8.53,8.53,0,0,1,1.277.319,2.752,2.752,0,0,0,.319.12c-.08.12-.279.439-.04.559.319.16,1.118-.319,1.118.12s.4.4,1.038.12c0,0,.319-.08.359.12a.4.4,0,0,0,.439.319c.12,0,.279-.2.479-.4a3.1,3.1,0,0,0,.639-.08c.24.16.4.2.559.08a.8.8,0,0,0,.16-.319,1.413,1.413,0,0,0,.639-.639,1.531,1.531,0,0,0,.12-1,.887.887,0,0,0,.24-.479c.04-.319-.279-.279-.519-.6a1.877,1.877,0,0,0-.359-.479,1.619,1.619,0,0,1-.12-.4c-.04-.479-.519-.639-.6-.12a6.2,6.2,0,0,0-3.872-.24c-.319.08-.639.16-.918.24-.958.279-1.836.559-2.275.12.04-.16.319-.838,1.637-1.317.958-.359,3.233-1.277,3.633-2.675.439.04,3.712.16,4.511-.958.719-1,1.317-1.876.639-2.715a3.553,3.553,0,0,0,.758-.8.608.608,0,0,0,.12-.479c-.04-.16-.2-.24-.359-.319a.818.818,0,0,1,.519-.279c.279-.08.319-.2.319-.279a.906.906,0,0,0-.559-.519M7.734,42.86a.975.975,0,0,1,.519.08c-.16.319-.24.359-.559.2a1.2,1.2,0,0,1-.319-.16c.12-.08.24-.16.359-.12m36.247.958-.12-.12c.04,0,.08-.04.12-.04v.16m2.2,9.9a.24.24,0,0,0,.04.16,1.292,1.292,0,0,1-.04.878,1.257,1.257,0,0,1-.8.559c-1.317.4-3.034-.319-3.952-.679-.12-.04-.24-.12-.359-.16a7.661,7.661,0,0,0-1.916-.4h-.12c-.639-.16-.719-.319-.719-.8a.619.619,0,0,1,.439-.6,5.955,5.955,0,0,0,1.916-.359c.279-.08.6-.16.878-.24a5.68,5.68,0,0,1,3.792.319,1.51,1.51,0,0,1,.838,1.317m-7.425.918c0,.04,0,.519-1.238,1.477-1.477,1.158-3.752.4-4.99,0h-.04a2.753,2.753,0,0,1-.319-.12,4.92,4.92,0,0,0-2.315-.04,4.523,4.523,0,0,0-.04-1.038c-.08-.319.24-.6.439-.758a3.19,3.19,0,0,0,.878-.2,1.708,1.708,0,0,0,.679-.12c-.08.2-.279.559-.08.6.24.08.838.2.639-.719a1.128,1.128,0,0,0,.838-.24c.04,0,.04-.04.08-.04a1.09,1.09,0,0,1,.878-.479,1.97,1.97,0,0,0,.6-.12h.04a9.683,9.683,0,0,1,1.756-.719h.04a1.532,1.532,0,0,0,1.357.16h0c.08.08.2.16.279.24a1.244,1.244,0,0,0-.359.8.86.86,0,0,0,.2.679,1.669,1.669,0,0,0,.679.439.178.178,0,0,0,0,.2M26.7,57.55a.419.419,0,0,0-.2.359,1.418,1.418,0,0,0,.08.4,1.09,1.09,0,0,1-.639-.559c-.519-.958-1.2-1.237-1.677-1.158a.567.567,0,0,0-.24.08.717.717,0,0,0,.12-.439,1.555,1.555,0,0,0,1.2-.24c.04.04.08.04.12.08.04,0,.08.04.12.04a10.769,10.769,0,0,1,2.076,1.357,2.408,2.408,0,0,0,.319.319,3.19,3.19,0,0,0,.519.519,2.607,2.607,0,0,1-1.4-.719.44.44,0,0,0-.4-.04m-6.667.08h0m.04-.12h0m.679.16c0-.04-.04-.12-.04-.16a5.279,5.279,0,0,0,.2-1.317.287.287,0,0,0-.16-.279.234.234,0,0,0-.279.08s.24,1.557-.719,1.876a3.7,3.7,0,0,1-.918.16,2.131,2.131,0,0,0-.439.16c.12-.758,1.4-1,1.4-1.836a2.246,2.246,0,0,0-.758-1.4,4.081,4.081,0,0,1-1-1.756l.04-.04a1.729,1.729,0,0,0-.04-.2.679.679,0,0,1,.04-.279c.2-.878.838-1.836,1.956-1.6a1.376,1.376,0,0,1,.559.319,1,1,0,0,1,.2.439c.04.439-.559.559-.6.559,0,0,0-.878-.479-.878a1.062,1.062,0,0,0-.918.8.845.845,0,0,0,.639,1.038c.16.08.319.12.479.2.24.12.479.2.679.279h-.08c-.04,0-.04,0-.08.04a.209.209,0,0,0,.04.2c.12.16.319.24.719.319.758.12,1.557.319,1.557,1.078a1.024,1.024,0,0,1-.479.958,2.322,2.322,0,0,0-1.477-1.517c-1.317-.479-1.8-.918-2-1.836,0-.04,0-.04-.04-.04s-.24-.12-.359,0a.289.289,0,0,0-.08.319,2.247,2.247,0,0,0,1.2,1.477c.16.08.359.16.519.24a3.041,3.041,0,0,1,1.557,1.078.3.3,0,0,0-.2.279l-.24,1.8a.826.826,0,0,1-.4-.559m-5.07-.679c0-.04-.04-.04-.04-.08l-.12-.12A1.381,1.381,0,0,0,14,56.752a.365.365,0,0,1-.2.12c0-.04-.04-.04-.04-.08l-.04-.04a1.652,1.652,0,0,0-1.237-.639H12.4a.521.521,0,0,0-.12-.519,5.644,5.644,0,0,1-.4-.559c-.359-.6.2-1.557.4-1.876A3.462,3.462,0,0,1,14.56,52.2a10.757,10.757,0,0,1,2.914.758,4.562,4.562,0,0,0,1.118,2.235l.2.2c-.559.319-1.437.878-1.557.958a1.509,1.509,0,0,1-.8.2,1.015,1.015,0,0,0-.639.16,1.947,1.947,0,0,0-.12.279h0M7.494,55.155a5.292,5.292,0,0,1-2.914-.4.388.388,0,0,0-.359.04.548.548,0,0,0-.2.319.509.509,0,0,1-.2.439c-.2.08-.519-.04-.838-.439a1.023,1.023,0,0,1-.24-.479c.04-.08.12-.2.559-.359a.609.609,0,0,0,.439-.439c.08-.319-.16-.519-.279-.679-.04-.04-.04-.08-.08-.08a.678.678,0,0,1,.24-.24.45.45,0,0,0,.12-.439.959.959,0,0,1-.08-.4A3.151,3.151,0,0,0,4.9,51.043a.593.593,0,0,0,.08-.359c-.12-.6-2-1.756-2-1.756a3.443,3.443,0,0,1-.878-.8,3.975,3.975,0,0,0-.4-.439,3.639,3.639,0,0,1-.12-1.916,1.1,1.1,0,0,1,.439-.878,1.469,1.469,0,0,1,1.158-.04.879.879,0,0,0,.319.04.147.147,0,0,0,.12-.04.3.3,0,0,1,.16-.04h0a1.312,1.312,0,0,1,.12.24,1.137,1.137,0,0,0,.16.319,8.08,8.08,0,0,0,.639.918c.2.279.439.559.559.758a18.472,18.472,0,0,1,1.078,2.116,3.616,3.616,0,0,1-.12,1.357v.2c-.08.24-.16.6-.04.639.16.12.359.04.559-.439a.551.551,0,0,0,.16-.12h0s.12-.12,1.038.08h.04a3.1,3.1,0,0,1,1.158.519l.4.4c.4.4.958.958,1.317,1.237a3.16,3.16,0,0,0,.838.4,2.393,2.393,0,0,0-.319,1.317,4.377,4.377,0,0,0-1.677.279,5.551,5.551,0,0,1-2.036.16.3.3,0,0,0-.16-.04M2.225,44.217a1.176,1.176,0,0,0-.519.2,1.058,1.058,0,0,0-.24.2c-.2-.2-.4-.359-.559-.519l-.04-.04a1.664,1.664,0,0,1,1-.439.9.9,0,0,1,.359.6m1.836-.479c.918-.878,1.237-.878,1.357-.8.04.04,0,.2-.319.679a1.822,1.822,0,0,0-.319.838,2.573,2.573,0,0,0-.559.24,2.443,2.443,0,0,0-.16-.24.4.4,0,0,0-.2-.16.784.784,0,0,1,.2-.559m7.305,1.677.08-.08c.12-.2.359-.479.479-.479a.574.574,0,0,1,.12.08,6.139,6.139,0,0,1,.479.519,2.512,2.512,0,0,0,1.078.878c.08,0,.4.16.838,1.118a.6.6,0,0,0,.4.359.407.407,0,0,0,.2.319,2.146,2.146,0,0,0,1.317.479,1.26,1.26,0,0,1,.758.279,4.981,4.981,0,0,0,1.557,1.118,3.211,3.211,0,0,1,.758.519,2.332,2.332,0,0,0-1.876,2v.04a11.42,11.42,0,0,0-1.237-.4c.04-.08-.04-.24-.12-.439-.12-.359-.639-.758-.519-.4a2.334,2.334,0,0,1,.04.4.679.679,0,0,0,.04.279,4.7,4.7,0,0,0-1-.16.531.531,0,0,0-.12-.279c-.2-.279-.24-.2-.279-.08a.5.5,0,0,0,0,.359,3.6,3.6,0,0,0-1.277.359,1.019,1.019,0,0,0-.04-.479c-.04-.24-.08-.479-.2-.319a.924.924,0,0,0-.2.519c.04.2.08.319.16.359a2.541,2.541,0,0,0-.958.719.039.039,0,0,1-.04.04,1.711,1.711,0,0,1-.8-.359,9.158,9.158,0,0,1-.958-.878c.04-.2.12-.6.04-.719-.12-.12-.279.04-.4.319a2.6,2.6,0,0,0-.4-.359.871.871,0,0,0-.2-.16c0-.16,0-.439-.08-.479-.12-.04-.2.16-.24.319a4.123,4.123,0,0,0-.838-.279h-.04a.147.147,0,0,1-.12-.04c.08-.2.12-.439.04-.439-.12,0-.279.2-.439.359a1.409,1.409,0,0,0-.838.08,5.158,5.158,0,0,0,.12-1.158l.04-.04c.6-.479,2.595-2,2.994-2.355a4.182,4.182,0,0,1,.439-.319,5.687,5.687,0,0,0,1.237-1.118m3.992,2.156h0l.04-.08a3.184,3.184,0,0,1,.878-.918.617.617,0,0,1,.24-.12l.04.04a.589.589,0,0,0,.479.2.493.493,0,0,0,.319-.16,1,1,0,0,1,.878-.16c.04,0,.12.04.16.04.719,0,.958.359,1.357,1.038a2.423,2.423,0,0,0,.279.4,5.9,5.9,0,0,0,2.4,1.517l-.04.04s-.16.12,0,.319.6.758.639.639c.08-.12-.08-.6-.16-.8.08.04.2.08.279.12a4.843,4.843,0,0,0,.559.2,2.815,2.815,0,0,0,2.954-.12c.758-.479,1.078-.279,1.277,0a2.844,2.844,0,0,0,1.078.719,4.028,4.028,0,0,1,.6.279c.2.12.24.2.24.24h0v.04s-.2.719-.479,1.677c-.16.519-.479.559-.6.559a3.1,3.1,0,0,0-3.433.679c-.279.2-.519.4-.679.4a.557.557,0,0,1-.359-.12c-.04-.04-.04-.08-.08-.12a1.058,1.058,0,0,0-.2-.24l-.12-.24a3.714,3.714,0,0,0-.439-.758A9.9,9.9,0,0,0,20.747,51a1.579,1.579,0,0,0-.6-.4,6.719,6.719,0,0,0-1.317-1,4.612,4.612,0,0,1-1.4-1.038,1.467,1.467,0,0,0-.6-.319c-.04-.24-.12-.639-.24-.639-.16,0-.279.359-.319.559a1.91,1.91,0,0,1-.918-.359c-.04-.04-.04-.04-.04-.08-.04-.08,0-.12.04-.16Zm18.4-.24h0c.04,0,.04,0,.08.04-.04.12-.12.359.16.359.359,0,.639-.24.319-.639l.359-.6a.264.264,0,0,0,.04-.24v-.12a.434.434,0,0,1,.2.04c.16.04.319.04.4-.08.12-.12.2-.16.24-.16a.745.745,0,0,1,.12.16.349.349,0,0,0,.359.24h.04a1.71,1.71,0,0,1-.08.479,3.493,3.493,0,0,0-.08.639,1.887,1.887,0,0,1-.679.279.339.339,0,0,0-.279.319.322.322,0,0,0,.16.359,1.269,1.269,0,0,1-.12.359,1.855,1.855,0,0,0-.12,1.237c.04.08.04.08-.2.24a2.492,2.492,0,0,0-.8.878,4.34,4.34,0,0,1-2.036,1.038c-.878.24-1.2,1.277-1.237,1.317a.254.254,0,0,0,0,.24c-.359.12-1.237.319-1.437-.2a1.305,1.305,0,0,0,.559-.758,14.849,14.849,0,0,1,.479-1.637,1.412,1.412,0,0,0,.04-.24,4.238,4.238,0,0,0,.4-1.277c.16-.838.719-1.158,1.557-1.677l.359-.24a2.062,2.062,0,0,1,1.2-.359M21.067,51.722v-.08A7.451,7.451,0,0,1,23.1,53.119h0a1.6,1.6,0,0,0-.958.04,2.614,2.614,0,0,1-2.235-.08,2.442,2.442,0,0,1-.479-.2c-.279-.12-.4-.279-.359-.519a.743.743,0,0,1,.439-.479s.279.12.16.639c-.04.2.679.2,1,0a.72.72,0,0,0,.4-.8M5.538,46.732c-.16-.2-.359-.519-.559-.8l-.6-.8a3.736,3.736,0,0,1,2-.479h0c.279.16.479.279.519.439,0,.16-.08.639-1.317,1.717,0-.04,0-.08-.04-.08M22.3,53.6a1.072,1.072,0,0,1,1.357.479,1.773,1.773,0,0,0,.319.439,1.494,1.494,0,0,0,1,.758c.24.04.319.08.359.08a.309.309,0,0,1-.04.12v.12a1.81,1.81,0,0,1-1.6.08h-.04s-.16.12-.08.479a.178.178,0,0,1,0,.2c-.04.08-.24.12-.439.12a.506.506,0,0,0-.24.04,1.578,1.578,0,0,0,.319-1.078c0-1.078-.679-1.477-1.756-1.6.16-.04.479-.12.838-.24M6.576,48.728c-.24-.519-.519-1.118-.758-1.557a7.865,7.865,0,0,0,1.158-1.2.931.931,0,0,0,.918-.479,2.75,2.75,0,0,0,.12-.319,3.874,3.874,0,0,1,.639,1.118,1.218,1.218,0,0,0,.4.519c-.679.559-1.956,1.557-2.475,1.916m.918-3.393a.3.3,0,0,1-.24.2.752.752,0,0,0,.08-.479c-.04-.4-.439-.639-.719-.8h0a1.918,1.918,0,0,0-1.317.08c.04-.12.16-.279.24-.439.04-.08.08-.12.12-.2.08-.04.12-.04.2-.08,1.078-.4,1.317-.16,1.8.279.2.24.16.679-.16,1.437M23.781,56.911c0,.04-.04.04-.04.08a.562.562,0,0,0,.279.559h.04c-.12.04-.559.12-.958-.519a.865.865,0,0,0,.679-.12m4.431.279h0a1.411,1.411,0,0,0-.24-.04,7.77,7.77,0,0,0-1.2-.878.69.69,0,0,0-.04-.4c-.08-.16-.4,0-.559.04a2.983,2.983,0,0,1-.479-.279v-.08a.659.659,0,0,0,0-.479,1.075,1.075,0,0,0-.679-.319c-.08,0-.12-.04-.2-.04a2.483,2.483,0,0,0,.8-.479,2.629,2.629,0,0,1,3.034-.6h.2a.931.931,0,0,0,.8.559,1.054,1.054,0,0,0-.24.918,9.73,9.73,0,0,1,.04,1.078c-.758,1.078-1.237,1-1.237,1M37.833,51.8a1.769,1.769,0,0,1-1.078-.12c.2-2.315.439-2.595.679-2.954a3.121,3.121,0,0,0,.519-.878c.439-1.078,1.317-1.317,2.595-1.6l.16-.04a1.776,1.776,0,0,1,1.6.279,1.445,1.445,0,0,0-.2,1.038,1.124,1.124,0,0,0,.8.639A6.271,6.271,0,0,1,39.709,50.2a3.171,3.171,0,0,0-1.876,1.6m5.309-3.992c-.319-.08-.519-.2-.559-.4a.814.814,0,0,1,.16-.639c1.2.279,2.2-.878,2.874-1.637.16-.16.279-.319.359-.4.679-.639,1.277-1.078,2.076-.439s.559,1.158-.359,2.475c-.479.679-2.714.838-4.152.758a.4.4,0,0,0-.4.279m1.038-3.154a1.412,1.412,0,0,1,1.078-.639,1.479,1.479,0,0,1,0,.6v.2c-.08.12-.2.2-.279.319a1.957,1.957,0,0,1-.838-.4l.04-.08m4.152-.679a1.412,1.412,0,0,0-.679-.359,2.617,2.617,0,0,1,.08-.918c.24.08.439.16.679.24a2.67,2.67,0,0,1,.679.279.139.139,0,0,0-.04.08,2.968,2.968,0,0,1-.719.679h0m.519-1.916c-.08-.2-.12-.319-.16-.4a.285.285,0,0,1,.24.12.745.745,0,0,0,.439.24h.04a.789.789,0,0,0-.439.24.872.872,0,0,0-.12-.2m-47.9.918a.147.147,0,0,1,.12-.04.141.141,0,0,1,.16.16.172.172,0,0,1-.16.16.141.141,0,0,1-.16-.16c-.04-.04,0-.08.04-.12" transform="translate(-0.388 -3.779)" fill="#f1f1f1"/>
      <path id="Trazado_439" data-name="Trazado 439" d="M10.58,47.693c-.24.08-.679.679-.359.719,0,0,.6-.319.679-.519.12-.16-.08-.24-.319-.2" transform="translate(-1.119 -4.261)" fill="#f1f1f1"/>
      <path id="Trazado_440" data-name="Trazado 440" d="M11.131,48.625c.24.08.4-.12.519-.359.16-.24,0-.559-.2-.319,0,0-.559.6-.319.679" transform="translate(-1.191 -4.275)" fill="#f1f1f1"/>
      <path id="Trazado_441" data-name="Trazado 441" d="M12.225,49a1.049,1.049,0,0,0,.24-.8c-.04-.24-.2-.12-.2-.12s-.479.519-.439.719c.08.2.24.439.4.2" transform="translate(-1.248 -4.289)" fill="#f1f1f1"/>
      <path id="Trazado_442" data-name="Trazado 442" d="M13.527,49.25c.24-.08.16-.359.08-.639s-.12-.479-.24-.359a.835.835,0,0,0-.16.479c0,.279.08.6.319.519" transform="translate(-1.352 -4.301)" fill="#f1f1f1"/>
      <path id="Trazado_443" data-name="Trazado 443" d="M20.7,12.081a.379.379,0,0,0-.24.439c.04.319.12.559.559.479.439-.04.12-.838.04-.918-.08-.12-.359,0-.359,0m.12.6a.579.579,0,0,1-.04-.24v-.08h.08a1.234,1.234,0,0,1,.08.319h-.12" transform="translate(-1.896 -1.582)" fill="#f1f1f1"/>
      <path id="Trazado_444" data-name="Trazado 444" d="M20.664,13.247a.375.375,0,0,0-.12.359c.04.24,0,.479.359.479s.4-.279.359-.559a.419.419,0,0,0-.6-.279m.279.519h-.12v-.24h.04a.039.039,0,0,1,.04.04c.08.16.04.2.04.2" transform="translate(-1.902 -1.67)" fill="#f1f1f1"/>
      <path id="Trazado_445" data-name="Trazado 445" d="M20.657,14.364s-.4.479-.12.6c.279.16.519.2.639-.2.16-.4-.16-.679-.519-.4m.24.319a.139.139,0,0,1-.04.08.039.039,0,0,1-.04-.04c.04-.04.04-.08.08-.12h0v.08" transform="translate(-1.895 -1.749)" fill="#f1f1f1"/>
      <path id="Trazado_446" data-name="Trazado 446" d="M21.392,11.56a.259.259,0,0,0-.2.319c.08.279.2.679.559.559s.279-.4.16-.758c-.12-.319-.319-.2-.519-.12m.279.6h0c-.04,0-.08-.08-.12-.319l.04-.04h.04c0,.12.08.279.04.359h0" transform="translate(-1.951 -1.54)" fill="#f1f1f1"/>
      <path id="Trazado_447" data-name="Trazado 447" d="M21.45,13s-.12.639.2.639.559-.08.519-.519c0-.6-.639-.679-.719-.12m.4.279h-.12V13c0-.08.04-.08.04-.08h.04a.233.233,0,0,1,.04.16c.04.16,0,.2,0,.2" transform="translate(-1.969 -1.627)" fill="#f1f1f1"/>
      <path id="Trazado_448" data-name="Trazado 448" d="M21.771,13.849s-.279.08-.279.319-.16.679.2.639.679-.16.6-.639c-.08-.519-.279-.4-.519-.319m.2.519c-.04.04-.12.04-.2.08v-.279a.139.139,0,0,1,.08-.04c.04,0,.08,0,.08-.04v.08a.7.7,0,0,1,.04.2" transform="translate(-1.971 -1.714)" fill="#f1f1f1"/>
      <path id="Trazado_449" data-name="Trazado 449" d="M22.213,10.738a.577.577,0,0,0-.16.639c.12.439.4.479.559.359.16-.08.279-.2.16-.639s-.359-.6-.559-.359m.16.279h0m.12.4a.124.124,0,0,0-.08.04h0l-.08-.16c-.04-.16,0-.24.04-.279.04.04.04.08.08.16a1.117,1.117,0,0,1,.04.24" transform="translate(-2.014 -1.477)" fill="#f1f1f1"/>
      <path id="Trazado_450" data-name="Trazado 450" d="M22.314,12.436c.08.319,0,.719.359.519.4-.2.4-.319.319-.719-.08-.559-.758-.12-.679.2m.4.12-.04.04a.3.3,0,0,0-.04-.2.039.039,0,0,1,.04-.04c.08.12.08.16.04.2" transform="translate(-2.035 -1.578)" fill="#f1f1f1"/>
      <path id="Trazado_451" data-name="Trazado 451" d="M22.487,13.562c0,.4.04.719.359.639s.439-.279.4-.758c-.12-.559-.8-.24-.758.12m.319.319a.879.879,0,0,0-.04-.319.039.039,0,0,1,.04-.04c.04-.04.04-.04.08-.04v.04c.04.279.04.319-.08.359" transform="translate(-2.049 -1.666)" fill="#f1f1f1"/>
      <path id="Trazado_452" data-name="Trazado 452" d="M32.693,15.711q-.12,0-.359.24l-.12.12a6.5,6.5,0,0,1-.838.758c-.04,0-.04.04-.04.08a.086.086,0,0,0,.08.08h2.076c.04,0,.04,0,.04-.04v-.08c-.16-.24-.6-.838-.679-1-.04-.08-.08-.16-.16-.16m-.24.758.12-.12.04-.04c.04.04.08.12.12.16Z" transform="translate(-2.714 -1.859)" fill="#f1f1f1"/>
      <path id="Trazado_453" data-name="Trazado 453" d="M2.1,36.66c1.237,4.112,2.156,4.87,1.836,2.515s-.719-4.152-.479-4.551c.24-.359.08-.958-.04-1.557a5.672,5.672,0,0,0-.24-2.2c-.479-1.477.08-1.118.04-1.836-.04-.758-.279-.719-.2-1.637s.12-2.235.12-2.235-.8-.04-.878.519a62.508,62.508,0,0,0,.319,8.942c.4,2.2-.719.08-.878-2.635s-.08-5.788-.08-5.788a.833.833,0,0,0-.758-.918c0-.08,0,7.265,1.237,11.377" transform="translate(-0.424 -2.569)" fill="#f1f1f1"/>
      <path id="Trazado_454" data-name="Trazado 454" d="M5.9,34.8c0-1.517-.559-2.2-.319-3.114s.4-1.277-.08-2c-.479-.758-.279-.679-.16-1.637s-.12-2.315-.04-3.074c0,0-.439-.359-.519.04a68.673,68.673,0,0,0,.4,7.585c.279,2.036-.24,1.2-.439-.519-.12-1.2-.439-6.866-.439-6.866s-.559-.439-.679-.04c0,0-.12,6.866,1.158,9.461C6.14,37.274,5.9,36.316,5.9,34.8" transform="translate(-0.631 -2.544)" fill="#f1f1f1"/>
      <path id="Trazado_455" data-name="Trazado 455" d="M7.826,33.131a3.208,3.208,0,0,1-.16-1.717,11.432,11.432,0,0,0-.359-2.275,41.252,41.252,0,0,1-.2-4.631s-.2-.24-.519.04c0,0,.04,3.433.2,4.71.16,1.237-.519-.08-.519-2.275-.04-2.156,0-2.595-.4-2.2,0,0-.12,6.627,1.717,8.742-.04,0,.479.439.24-.4" transform="translate(-0.8 -2.513)" fill="#f1f1f1"/>
      <path id="Trazado_456" data-name="Trazado 456" d="M7.639,24.083s-.2,6.108,1.437,7.784c1.677,1.677.4.08.4-1.876,0-2.275-.479-1.756-.519-2.315,0,0-.08-2.315-.2-2.994-.08-.679-.6-1-.439.08.16,1.118.479,3.992.08,4.032s-.359-1.836-.359-2.914c0-1.118.16-1.756-.4-1.8" transform="translate(-0.933 -2.486)" fill="#f1f1f1"/>
      <path id="Trazado_457" data-name="Trazado 457" d="M10.155,23.823s-.279-.24-.2.8c.08,1.078.319,2.116-.08,2.076-.359-.04-.24-1.357-.279-1.876-.08-.519-.16-1.2-.359-.8,0,0,.04,4.112,1.2,5.828,1.118,1.717,1.118.4.6-.6a7.249,7.249,0,0,1-.639-3.194,16.5,16.5,0,0,0-.24-2.235" transform="translate(-1.053 -2.467)" fill="#f1f1f1"/>
      <path id="Trazado_458" data-name="Trazado 458" d="M11.332,27.827c.719,1,.519.16.359-.878a20.557,20.557,0,0,1-.12-3.433.276.276,0,0,0-.4,0s.2,1.876.04,1.836c-.2-.04-.24-.679-.319-1.357s-.12-.479-.319-.359c-.04,0,.04,3.194.758,4.192" transform="translate(-1.153 -2.439)" fill="#f1f1f1"/>
      <path id="Trazado_459" data-name="Trazado 459" d="M1.357,18.255s-.2,1.317-.279,3.233.04,2.235.8,2.275c.958.04,1.158-.6,1.317-2.156.16-1.677.2-2.515.2-2.754.04-.279-.519-.918-.639.12s-.04,4.231-.679,4.072c-.639-.12-.479-1.717-.359-2.834s.479-2.4.04-2.515c-.4-.08-.4.559-.4.559" transform="translate(-0.439 -2.008)" fill="#f1f1f1"/>
      <path id="Trazado_460" data-name="Trazado 460" d="M3.9,18.977s-.8,4.671.04,4.71c1.277.04,1.078-1.277,1.2-2.754s.279-1.876-.04-1.876-.4,1.4-.439,2.156,0,1.756-.359,1.717-.319-1.118-.2-2.036c.24-2.076.12-2.355-.2-1.916" transform="translate(-0.626 -2.091)" fill="#f1f1f1"/>
      <path id="Trazado_461" data-name="Trazado 461" d="M6,19.536s-.12-.2-.279-.2c0,0-.16,1.637-.2,2.595s.12,1.4.758,1.4.559-1.118.6-2.036.279-1.717,0-1.8-.279.6-.319,1.2S6.482,22.61,6.2,22.61c-.24,0-.4-.319-.359-1.277.08-.918.16-1.8.16-1.8" transform="translate(-0.774 -2.131)" fill="#f1f1f1"/>
      <path id="Trazado_462" data-name="Trazado 462" d="M25.7,23.738c.24-.04.2-.2.359,0,.2.2.2.24.439.16a.825.825,0,0,1,.639.2c.12.12.319.12.279.24s-.24.279.279.359.679.16.838,0c.12-.2.359-.2-.04-.4-.4-.24-.559-.2-.878-.559-.319-.319-.279-.319-.519-.4a1.389,1.389,0,0,0-.838-.12,2.58,2.58,0,0,1-.758.12s-.16.12-.04.24c.08.12.04.2.24.16" transform="translate(-2.269 -2.421)" fill="#f1f1f1"/>
      <path id="Trazado_463" data-name="Trazado 463" d="M28.1,25.154c-.16,0-.279-.12-.4-.12,0,0-.24-.04-.12.2s.279.24.4.2c.16-.08.279-.279.12-.279" transform="translate(-2.429 -2.559)" fill="#f1f1f1"/>
      <path id="Trazado_464" data-name="Trazado 464" d="M29.431,25.275a1.2,1.2,0,0,0,.519-.12c.16-.08.319.04.479.08a.3.3,0,0,0,.4-.16c.12-.2-.04-.319-.16-.439-.12-.16-.359-.12-.519-.04s-.12.16-.279.16c-.2,0-.679.439-.439.519" transform="translate(-2.566 -2.521)" fill="#f1f1f1"/>
      <path id="Trazado_465" data-name="Trazado 465" d="M31.581,25.429c.08,0,.279.04.359.04s.24,0,.08-.24c-.12-.24-.08-.279-.359-.24s-.24.12-.24.12.08.319.16.319" transform="translate(-2.72 -2.555)" fill="#f1f1f1"/>
      <path id="Trazado_466" data-name="Trazado 466" d="M32.658,28.714c.04.04.16.16.2-.04.04-.16.04-.439-.319-.319a.141.141,0,0,0-.04.2c.08.04.12.12.16.16" transform="translate(-2.799 -2.807)" fill="#f1f1f1"/>
      <path id="Trazado_467" data-name="Trazado 467" d="M10.74,20.626c-.4,2.834.719,1.836.719,1.836.04-.719.16-1.677.16-1.677-.12-.16-.24-.08-.24.279-.04.359-.04,1.2-.319,1.118s-.04-1.557-.16-1.6c-.12-.08-.16.04-.16.04" transform="translate(-1.16 -2.223)" fill="#f1f1f1"/>
      <path id="Trazado_468" data-name="Trazado 468" d="M9.264,20.242s-.2,1.4-.2,1.836a.662.662,0,0,0,.8.719c.559-.04.439-.8.479-1.4a7.034,7.034,0,0,1,.12-.958c-.279-.12-.24-.04-.359.758s-.08,1.118-.439,1.158c-.4.04-.16-1.477-.12-1.836,0-.359-.279-.279-.279-.279" transform="translate(-1.04 -2.199)" fill="#f1f1f1"/>
      <path id="Trazado_469" data-name="Trazado 469" d="M7.577,19.852a16.9,16.9,0,0,0-.24,2.435c0,1.078,1.2.758,1.277-.04.04-.8.279-2.2.279-2.2-.4-.319-.439.519-.519,1.237s-.12,1.158-.479,1.078c-.4-.08-.12-2-.12-2.355.04-.279-.2-.16-.2-.16" transform="translate(-0.911 -2.168)" fill="#f1f1f1"/>
      <path id="Trazado_470" data-name="Trazado 470" d="M6.984,47.11c-.2.359-.08.439.12.479s.279-.6.279-.6c-.08-.24-.24-.24-.4.12" transform="translate(-0.876 -4.197)" fill="#f1f1f1"/>
      <path id="Trazado_471" data-name="Trazado 471" d="M7.836,46.915s-.279-.04-.24.4.279.479.4.4.08-.479.08-.559-.08-.359-.24-.24" transform="translate(-0.93 -4.201)" fill="#f1f1f1"/>
      <path id="Trazado_472" data-name="Trazado 472" d="M8.5,46.825a.892.892,0,0,0,.12.559c.16.24.439.359.359-.12-.12-.479-.2-.6-.479-.439" transform="translate(-0.998 -4.192)" fill="#f1f1f1"/>
      <path id="Trazado_473" data-name="Trazado 473" d="M3.645,46.008c-.12-.04-.2-.08-.279.08,0,0-.08.279.16.279a.2.2,0,0,0,.12-.359" transform="translate(-0.611 -4.133)" fill="#f1f1f1"/>
      <path id="Trazado_474" data-name="Trazado 474" d="M2.46,46.7h0c0,.04,0,.24.12.24.16,0,.16-.08.16-.16.04-.12-.2-.24-.279-.08" transform="translate(-0.544 -4.181)" fill="#f1f1f1"/>
      <path id="Trazado_475" data-name="Trazado 475" d="M2.844,48.25a.2.2,0,0,0,.04.319c.2.12.24.08.2-.16-.04-.279-.12-.24-.24-.16" transform="translate(-0.568 -4.299)" fill="#f1f1f1"/>
      <path id="Trazado_476" data-name="Trazado 476" d="M4.227,48.2s.16.08.2.04c.04-.08-.04-.16-.04-.16s-.279-.08-.16.12" transform="translate(-0.675 -4.29)" fill="#f1f1f1"/>
      <path id="Trazado_477" data-name="Trazado 477" d="M4.444,49.374s-.08.24.12.279.24-.2.16-.279-.279-.04-.279,0" transform="translate(-0.692 -4.385)" fill="#f1f1f1"/>
      <path id="Trazado_478" data-name="Trazado 478" d="M5.609,49.706s.2.04.2,0a.2.2,0,0,0-.04-.2.133.133,0,0,0-.16.2" transform="translate(-0.779 -4.397)" fill="#f1f1f1"/>
      <path id="Trazado_479" data-name="Trazado 479" d="M5.354,53.889s.4-.918-.16-.758a.635.635,0,0,0-.2.639s-.279-.12-.08.279c.2.359.319.719.679.359.359-.319-.24-.519-.24-.519" transform="translate(-0.723 -4.669)" fill="#f1f1f1"/>
      <path id="Trazado_480" data-name="Trazado 480" d="M6.842,54.641s-.319.24-.24.359.519.16.559,0c.04-.12-.16-.479-.319-.359" transform="translate(-0.854 -4.782)" fill="#f1f1f1"/>
      <path id="Trazado_481" data-name="Trazado 481" d="M8.354,54.9s-.359.12-.2.279a.529.529,0,0,0,.519.16c.04,0,.2-.519-.319-.439" transform="translate(-0.969 -4.803)" fill="#f1f1f1"/>
      <path id="Trazado_482" data-name="Trazado 482" d="M7.186,53.175s-.4.24-.24.4.439-.12.439-.12.08-.319-.2-.279" transform="translate(-0.878 -4.674)" fill="#f1f1f1"/>
      <path id="Trazado_483" data-name="Trazado 483" d="M8.578,52.7a.294.294,0,0,0,.4-.12s-.2-.519-.439-.319c0,0-.24.319.04.439" transform="translate(-0.994 -4.602)" fill="#f1f1f1"/>
      <path id="Trazado_484" data-name="Trazado 484" d="M10.389,54.651a.449.449,0,0,0,.439,0s.2-.279-.559-.439c0,0-.16.319.12.439" transform="translate(-1.127 -4.752)" fill="#f1f1f1"/>
      <path id="Trazado_485" data-name="Trazado 485" d="M14.676,54.5c0-.279-.319-.16-.319-.16s-.2.04-.2.16.24.16.24.16.279.12.279-.16" transform="translate(-1.423 -4.759)" fill="#f1f1f1"/>
      <path id="Trazado_486" data-name="Trazado 486" d="M14.734,56.282c-.16-.08-.319.12-.319.12s-.12.359.24.359.319-.24.319-.24.08-.08-.24-.24" transform="translate(-1.441 -4.906)" fill="#f1f1f1"/>
      <path id="Trazado_487" data-name="Trazado 487" d="M16.725,55.653c0-.2-.24-.319-.4-.319,0,0-.359.04-.4.319-.08.279.479.279.479.279s.319-.08.319-.279" transform="translate(-1.555 -4.836)" fill="#f1f1f1"/>
      <path id="Trazado_488" data-name="Trazado 488" d="M16.315,56.88a.288.288,0,0,0,.319.279c.319,0,.279-.2.279-.2s-.519-.319-.6-.08" transform="translate(-1.585 -4.945)" fill="#f1f1f1"/>
      <path id="Trazado_489" data-name="Trazado 489" d="M18.315,55.732c.359,0,.24-.279.24-.279a.335.335,0,0,0-.319-.12c-.24,0-.279,0-.279.2,0-.04,0,.2.359.2" transform="translate(-1.708 -4.835)" fill="#f1f1f1"/>
      <path id="Trazado_490" data-name="Trazado 490" d="M14.64,49.379c.2-.04.04-.679.04-.679s-.16-.4-.24-.359c0,0-.319,0-.2.479.12.559.2.6.4.559" transform="translate(-1.427 -4.31)" fill="#f1f1f1"/>
      <path id="Trazado_491" data-name="Trazado 491" d="M15.468,49.095a.259.259,0,0,0,.4.12c.16-.12-.319-.838-.319-.838s-.479-.24-.4,0a2.456,2.456,0,0,0,.319.719" transform="translate(-1.497 -4.305)" fill="#f1f1f1"/>
      <path id="Trazado_492" data-name="Trazado 492" d="M8.978,48.989c-.16,0-.679.359-.479.439a.441.441,0,0,0,.439-.12c.2-.2.16-.279.04-.319" transform="translate(-0.994 -4.359)" fill="#f1f1f1"/>
      <path id="Trazado_493" data-name="Trazado 493" d="M9.85,49.417s-.6.6-.359.719.439-.2.519-.439c.08-.279-.04-.4-.16-.279" transform="translate(-1.068 -4.388)" fill="#f1f1f1"/>
      <path id="Trazado_494" data-name="Trazado 494" d="M10.531,50.374c.08.2.24.439.4-.04s.08-.519-.04-.359c0,0-.439.24-.359.4" transform="translate(-1.15 -4.427)" fill="#f1f1f1"/>
      <path id="Trazado_495" data-name="Trazado 495" d="M12.094,50.591c.12-.559,0-.519-.12-.359,0,0-.4.319-.279.479.08.12.319.439.4-.12" transform="translate(-1.236 -4.445)" fill="#f1f1f1"/>
      <path id="Trazado_496" data-name="Trazado 496" d="M13.271,51.4c.319.04.2-.439.12-.8-.08-.319-.16-.359-.24-.359,0,0-.16-.04-.16.359,0,.439,0,.758.279.8" transform="translate(-1.335 -4.453)" fill="#f1f1f1"/>
      <path id="Trazado_497" data-name="Trazado 497" d="M14.45,50.494s-.319.639.12.918c.4.24.24-.2.16-.519s-.2-.6-.279-.4" transform="translate(-1.437 -4.467)" fill="#f1f1f1"/>
      <path id="Trazado_498" data-name="Trazado 498" d="M15.74,50.37s-.24-.04-.16.319.2.679.519.6c.359-.08-.16-.8-.359-.918" transform="translate(-1.529 -4.463)" fill="#f1f1f1"/>
      <path id="Trazado_499" data-name="Trazado 499" d="M17.658,51.2c.2-.359-.719-1.038-.878-.918,0,0-.279.12,0,.439.279.279.719.838.878.479" transform="translate(-1.611 -4.455)" fill="#f1f1f1"/>
      <path id="Trazado_500" data-name="Trazado 500" d="M18.876,50.981c.2-.12-.319-.639-.319-.639s-.4-.439-.479-.319c0,0-.24.24.08.559.279.319.479.559.719.4" transform="translate(-1.711 -4.435)" fill="#f1f1f1"/>
      <path id="Trazado_501" data-name="Trazado 501" d="M12.316,52.133s-.6.8-.24.958.4-.6.4-.878c0-.319-.16-.08-.16-.08" transform="translate(-1.258 -4.589)" fill="#f1f1f1"/>
      <path id="Trazado_502" data-name="Trazado 502" d="M18.17,51.914a3.546,3.546,0,0,1,.24.6c.04.16.2.439.4.2.16-.279.08-.359-.12-.6-.16-.279-.639-.439-.519-.2" transform="translate(-1.723 -4.57)" fill="#f1f1f1"/>
      <path id="Trazado_503" data-name="Trazado 503" d="M5.061,16.4a.7.7,0,0,0-.8.519c-.24.639-.08.918.08.878.12-.04.2-.639.359-.6.16.08-.2.6.04.679s.319-.6.479-.559c.16.08-.16.6.08.679s.6-1.357-.24-1.6" transform="translate(-0.67 -1.91)" fill="#f1f1f1"/>
      <path id="Trazado_504" data-name="Trazado 504" d="M6.926,17.005a.623.623,0,0,0-.719.479c-.2.6-.04.838.08.8s.16-.6.319-.559-.16.559.08.6c.2.04.24-.559.4-.519s-.12.559.08.6c.24.12.519-1.2-.24-1.4" transform="translate(-0.819 -1.956)" fill="#f1f1f1"/>
      <path id="Trazado_505" data-name="Trazado 505" d="M3.251,17.193c.319.12.918-1.557-.16-1.916a.928.928,0,0,0-1.078.519c-.319.758-.16,1.078,0,1.038s.319-.758.519-.679-.279.719,0,.8.439-.719.679-.6c.2.12-.279.758.04.838" transform="translate(-0.497 -1.825)" fill="#f1f1f1"/>
      <path id="Trazado_506" data-name="Trazado 506" d="M8.574,17.652a.533.533,0,0,0-.639.4c-.16.519-.04.719.04.679.12-.04.16-.519.279-.479s-.16.479.04.519c.16.04.24-.479.4-.439.12.04-.12.479.08.559s.479-1.038-.2-1.237" transform="translate(-0.95 -2.004)" fill="#f1f1f1"/>
      <path id="Trazado_507" data-name="Trazado 507" d="M10.211,19.209c.16.04.4-.878-.16-1.038a.448.448,0,0,0-.519.319c-.16.439-.04.6.04.559s.12-.439.24-.4-.12.4.04.439.2-.4.319-.359c.12.08-.12.439.04.479" transform="translate(-1.07 -2.043)" fill="#f1f1f1"/>
      <path id="Trazado_508" data-name="Trazado 508" d="M11.633,19.558c.16.04.279-.918-.279-1a.448.448,0,0,0-.479.4c-.08.439.04.6.12.559s.08-.439.2-.4-.08.4.08.439.16-.439.279-.4c.12,0-.08.4.08.4" transform="translate(-1.174 -2.073)" fill="#f1f1f1"/>
      <path id="Trazado_509" data-name="Trazado 509" d="M2.347,18.664c-.08.559-.519,3.752-.24,3.792s.24-1.4.319-2.116c.08-.758.2-1.876.2-1.876s-.2-.359-.279.2" transform="translate(-0.511 -2.057)" fill="#f1f1f1"/>
      <path id="Trazado_510" data-name="Trazado 510" d="M4.511,19.4a11.816,11.816,0,0,0-.2,2.994c.2.04.2-1.118.24-1.677.04-.6.16-1.477.16-1.477s-.12-.279-.2.16" transform="translate(-0.678 -2.118)" fill="#f1f1f1"/>
      <path id="Trazado_511" data-name="Trazado 511" d="M6.29,19.882c-.04.359-.279,2.355-.04,2.4.2.04.12-.878.16-1.357s.08-1.158.08-1.158-.16-.24-.2.12" transform="translate(-0.821 -2.157)" fill="#f1f1f1"/>
      <path id="Trazado_512" data-name="Trazado 512" d="M8.1,20.1c-.04.279-.279,1.8-.08,1.8s.16-.679.2-1c.04-.359.12-.878.12-.878s-.2-.2-.24.08" transform="translate(-0.956 -2.178)" fill="#f1f1f1"/>
      <path id="Trazado_513" data-name="Trazado 513" d="M9.989,20.413s-.16-.12-.2.08-.2,1.4,0,1.4.12-.519.12-.8c.04-.24.08-.679.08-.679" transform="translate(-1.087 -2.21)" fill="#f1f1f1"/>
      <path id="Trazado_514" data-name="Trazado 514" d="M11.375,20.629s-.12-.12-.16.08c-.04.16-.16,1.2,0,1.2s.08-.439.12-.679c0-.24.04-.6.04-.6" transform="translate(-1.196 -2.226)" fill="#f1f1f1"/>
      <path id="Trazado_515" data-name="Trazado 515" d="M39.493,19.207v1s.519-.04.519-.16.2.08.2.08a1.381,1.381,0,0,0-.719-.918" transform="translate(-3.326 -2.122)" fill="#f1f1f1"/>
      <path id="Trazado_516" data-name="Trazado 516" d="M40.258,22.176c-.2,0-.359.08-.319-.439.04-.479.08-.838-.359-.679v1.557s.679.479,1.078,0a3.4,3.4,0,0,0-.12-1.6s-.08-.08-.24.12c0,0,.16,1.038-.04,1.038" transform="translate(-3.333 -2.257)" fill="#f1f1f1"/>
      <path id="Trazado_517" data-name="Trazado 517" d="M39.534,23.512a5.61,5.61,0,0,0,0,1.158c.08,0,.439,0,.439-.719-.04-.719-.279-.639-.439-.439" transform="translate(-3.327 -2.435)" fill="#f1f1f1"/>
      <path id="Trazado_518" data-name="Trazado 518" d="M40.469,23.347s-.16-.04-.16.479c0,.479-.12.838.04.838s.279-.439.359-.838c.08-.479-.04-.6-.24-.479" transform="translate(-3.385 -2.429)" fill="#f1f1f1"/>
      <path id="Trazado_519" data-name="Trazado 519" d="M39.652,25.834c.279,0,.679,0,.719-.479.08-.479-.479-.319-.878.04.04.04-.12.439.16.439" transform="translate(-3.326 -2.561)" fill="#f1f1f1"/>
      <path id="Trazado_520" data-name="Trazado 520" d="M39.534,26.489a6.824,6.824,0,0,0,0,1.277,8.242,8.242,0,0,0,.6-1.2c.12-.319-.479-.279-.6-.08" transform="translate(-3.327 -2.657)" fill="#f1f1f1"/>
      <path id="Trazado_521" data-name="Trazado 521" d="M39.242,35.655c.2.758.04.719-.12.719-.2,0-.359-1.078-.639-.359-.16.4-.4,1.038.08,1,.519-.04,1.756.04,1.357-.958s-.878-1.2-.679-.4" transform="translate(-3.235 -3.32)" fill="#f1f1f1"/>
      <path id="Trazado_522" data-name="Trazado 522" d="M40.3,39.057a.452.452,0,0,0,.08-.439c-.08-.279-.878-.08-.878-.08l-1.876.08s-.24.4-.16.479a16.914,16.914,0,0,0,2.834-.04" transform="translate(-3.173 -3.569)" fill="#f1f1f1"/>
      <path id="Trazado_523" data-name="Trazado 523" d="M38.591,40.724c0-.719-.16-1.357-.719-1.317,0,0-.8-.04-.8.479-.04.519-.08,1.277.16,1.277s.04-.918.239-.958c.2,0,.2.359.2.639s.359.359.319-.04-.2-.719,0-.639c.2.04.279.08.24.479-.08.4.359.838.359.08" transform="translate(-3.142 -3.639)" fill="#f1f1f1"/>
      <path id="Trazado_524" data-name="Trazado 524" d="M39.5,40.168c.16,0,.2.359.2.6s.319.359.279-.04c-.04-.359-.2-.639,0-.6s.24.08.2.439.359.719.359.08c0-.679-.16-1.237-.679-1.2,0,0-.719-.04-.758.439s-.08,1.2.16,1.2c.24-.04.08-.918.24-.918" transform="translate(-3.295 -3.642)" fill="#f1f1f1"/>
      <path id="Trazado_525" data-name="Trazado 525" d="M19.092,49.195c.279,0,.16-1.4-.2-1.158a.544.544,0,0,0-.16.439c0,.359.08.719.359.719" transform="translate(-1.767 -4.286)" fill="#f1f1f1"/>
      <path id="Trazado_526" data-name="Trazado 526" d="M20.34,49.107c-.08-.559-.319-.8-.359-.6a1.64,1.64,0,0,0,0,.679c.08.359.439.439.359-.08" transform="translate(-1.858 -4.318)" fill="#f1f1f1"/>
      <path id="Trazado_527" data-name="Trazado 527" d="M21.572,49.232c.08-.08-.359-.918-.559-.679,0,0-.2.08.04.439.279.319.439.319.519.24" transform="translate(-1.932 -4.323)" fill="#f1f1f1"/>
      <path id="Trazado_528" data-name="Trazado 528" d="M22.883,51.081a.534.534,0,0,0-.319-.279.183.183,0,0,0-.04.319c.16.2.359.08.359-.04" transform="translate(-2.046 -4.495)" fill="#f1f1f1"/>
      <path id="Trazado_529" data-name="Trazado 529" d="M23.942,51.1c.279-.12-.279-.6-.6-.6,0,0-.2,0,0,.279.16.279.319.479.6.319" transform="translate(-2.106 -4.473)" fill="#f1f1f1"/>
      <path id="Trazado_530" data-name="Trazado 530" d="M25.279,52.874c.319.279.559.279.359-.08-.16-.319-.319-.559-.439-.4a.3.3,0,0,0,.08.479" transform="translate(-2.246 -4.611)" fill="#f1f1f1"/>
      <path id="Trazado_531" data-name="Trazado 531" d="M26.827,52.54c.08-.2-.439-.918-.639-.918,0,0-.279.04-.04.479.24.479.6.679.679.439" transform="translate(-2.317 -4.557)" fill="#f1f1f1"/>
      <path id="Trazado_532" data-name="Trazado 532" d="M27.713,52.29c0-.2-.4-1-.439-.758a.984.984,0,0,0,.08.8c.24.279.359.16.359-.04" transform="translate(-2.405 -4.547)" fill="#f1f1f1"/>
      <path id="Trazado_533" data-name="Trazado 533" d="M28.83,51.954c-.04-.319-.319-.8-.439-.679,0,0-.24.12-.04.479.24.359.559.519.479.2" transform="translate(-2.483 -4.53)" fill="#f1f1f1"/>
      <path id="Trazado_534" data-name="Trazado 534" d="M29.659,51.534c.519,0-.12-.4-.16-.479s-.279-.12-.279,0a.4.4,0,0,0,.439.479" transform="translate(-2.554 -4.509)" fill="#f1f1f1"/>
      <path id="Trazado_535" data-name="Trazado 535" d="M29.656,53.369a.336.336,0,0,0-.279-.279s-.359-.04-.12.24c.2.279.439.24.4.04" transform="translate(-2.551 -4.667)" fill="#f1f1f1"/>
      <path id="Trazado_536" data-name="Trazado 536" d="M30.642,53.211c-.2-.479-.359-.719-.519-.6,0,0-.16.2.08.519s.639.559.439.08" transform="translate(-2.619 -4.629)" fill="#f1f1f1"/>
      <path id="Trazado_537" data-name="Trazado 537" d="M31.319,52.441c-.08-.4-.719-1.357-.719-1a.81.81,0,0,0,.16.639c.24.319.639.758.559.359" transform="translate(-2.657 -4.538)" fill="#f1f1f1"/>
      <path id="Trazado_538" data-name="Trazado 538" d="M29.082,54.808c-.08.16-.24.639.08.479,0,0,.479-.279.4-.439-.08-.12-.359-.2-.479-.04" transform="translate(-2.536 -4.79)" fill="#f1f1f1"/>
      <path id="Trazado_539" data-name="Trazado 539" d="M30.094,55.894c-.279.08-.519.319-.359.479,0,0,.16.279.479,0s.12-.519-.12-.479" transform="translate(-2.589 -4.878)" fill="#f1f1f1"/>
      <path id="Trazado_540" data-name="Trazado 540" d="M34.635,56.45s-.6.479-.08.519c.479.04.559-.12.439-.359-.2-.279-.2-.279-.359-.16" transform="translate(-2.94 -4.914)" fill="#f1f1f1"/>
      <path id="Trazado_541" data-name="Trazado 541" d="M38.076,56.888c-.12,0-.6.279-.4.479,0,0,.4.16.6-.12.16-.279-.08-.359-.2-.359" transform="translate(-3.186 -4.953)" fill="#f1f1f1"/>
      <path id="Trazado_542" data-name="Trazado 542" d="M39.432,55.849c-.24.08-.359.279,0,.439a.42.42,0,0,0,.4-.2c.16-.24-.16-.319-.4-.24" transform="translate(-3.305 -4.872)" fill="#f1f1f1"/>
      <path id="Trazado_543" data-name="Trazado 543" d="M37.188,55.633s-.479.639,0,.639c.519.04.24-.439.24-.439s-.16-.359-.24-.2" transform="translate(-3.137 -4.855)" fill="#f1f1f1"/>
      <path id="Trazado_544" data-name="Trazado 544" d="M37.157,54.5c-.24-.2-.359-.12-.479.04,0,0-.319.559.08.559s.679-.4.4-.6" transform="translate(-3.106 -4.765)" fill="#f1f1f1"/>
      <path id="Trazado_545" data-name="Trazado 545" d="M39.189,54.365c-.08-.2-.12-.279-.319-.2,0,0-.4.279-.16.4.279.08.559,0,.479-.2" transform="translate(-3.262 -4.746)" fill="#f1f1f1"/>
      <path id="Trazado_546" data-name="Trazado 546" d="M33.1,52.91s-.12.279.16.279c.279.04.319-.16.279-.279a.341.341,0,0,0-.439,0" transform="translate(-2.844 -4.648)" fill="#f1f1f1"/>
      <path id="Trazado_547" data-name="Trazado 547" d="M33.579,50.882a.416.416,0,0,0,.24.479c.319.08.2-.2.2-.279-.04-.12-.439-.4-.439-.2" transform="translate(-2.881 -4.496)" fill="#f1f1f1"/>
      <path id="Trazado_548" data-name="Trazado 548" d="M35.337,51.708s-.279.279-.08.359c.16.08.519-.24.08-.359" transform="translate(-3.003 -4.564)" fill="#f1f1f1"/>
      <path id="Trazado_549" data-name="Trazado 549" d="M36.593,50.816c.279.04.439-.279.08-.359,0,.04-.359.319-.08.359" transform="translate(-3.101 -4.469)" fill="#f1f1f1"/>
      <path id="Trazado_550" data-name="Trazado 550" d="M35.03,50.755s-.359.04-.16.24.279.2.359-.04c.08-.279,0-.279-.2-.2" transform="translate(-2.975 -4.488)" fill="#f1f1f1"/>
      <path id="Trazado_551" data-name="Trazado 551" d="M35.694,49.372a.312.312,0,0,0,.12.359c.2.12.2,0,.24-.12s-.359-.439-.359-.24" transform="translate(-3.04 -4.383)" fill="#f1f1f1"/>
      <path id="Trazado_552" data-name="Trazado 552" d="M35.263,48.759a.317.317,0,0,0,.319-.04c.16-.12-.359-.24-.319.04" transform="translate(-3.008 -4.329)" fill="#f1f1f1"/>
      <path id="Trazado_553" data-name="Trazado 553" d="M38.434,47.159c.16-.16-.2-.319-.279-.12-.04,0,.12.279.279.12" transform="translate(-3.225 -4.206)" fill="#f1f1f1"/>
      <path id="Trazado_554" data-name="Trazado 554" d="M48.658,55.887c.4-.12.639-.758-.04-.6,0,0-.319.319-.319.4.04.08,0,.319.359.2" transform="translate(-3.988 -4.831)" fill="#f1f1f1"/>
      <path id="Trazado_555" data-name="Trazado 555" d="M46.05,54.809s-.12.4.04.359.479-.12.279-.319c-.2-.16-.279-.16-.319-.04" transform="translate(-3.816 -4.79)" fill="#f1f1f1"/>
      <path id="Trazado_556" data-name="Trazado 556" d="M44.773,54.25s-.319.12-.359.24c0,.12,0,.4.319.16.319-.2.519-.6.04-.4" transform="translate(-3.696 -4.75)" fill="#f1f1f1"/>
      <path id="Trazado_557" data-name="Trazado 557" d="M43.4,53.776s-.4.12-.279.279.439.439.519.12,0-.559-.24-.4" transform="translate(-3.597 -4.715)" fill="#f1f1f1"/>
      <path id="Trazado_558" data-name="Trazado 558" d="M46.419,53.173s-.319.12-.279.24a.226.226,0,0,0,.4.08c.2-.12.2-.439-.12-.319" transform="translate(-3.826 -4.672)" fill="#f1f1f1"/>
      <path id="Trazado_559" data-name="Trazado 559" d="M47.5,54.551c.24-.08.6-.679.08-.6a.549.549,0,0,0-.279.279c-.12.2-.04.4.2.319" transform="translate(-3.909 -4.732)" fill="#f1f1f1"/>
      <path id="Trazado_560" data-name="Trazado 560" d="M41.175,49.064s0,.4.279.319a.218.218,0,0,0,.16-.319s-.559-.319-.439,0" transform="translate(-3.452 -4.354)" fill="#f1f1f1"/>
      <path id="Trazado_561" data-name="Trazado 561" d="M41.1,51.094c-.24-.12-.24-.16-.319-.08,0,0-.2.4.04.4.2,0,.519-.2.279-.319" transform="translate(-3.417 -4.508)" fill="#f1f1f1"/>
      <path id="Trazado_562" data-name="Trazado 562" d="M42.3,49.806c.04-.16-.838.2-.479.359,0,0,.279.16.439.08.12-.08,0-.279.04-.439" transform="translate(-3.495 -4.418)" fill="#f1f1f1"/>
      <path id="Trazado_563" data-name="Trazado 563" d="M43.225,47.916c.24,0,.24-.24.16-.359s-.479-.16-.439.12c-.04,0,.04.279.279.24" transform="translate(-3.585 -4.245)" fill="#f1f1f1"/>
      <path id="Trazado_564" data-name="Trazado 564" d="M43.329,48.742c.519.279.319-.519.08-.359.04-.04-.279.2-.08.359" transform="translate(-3.61 -4.312)" fill="#f1f1f1"/>
      <path id="Trazado_565" data-name="Trazado 565" d="M44.175,48.045c.559,0,.24-.559.04-.439,0,0-.24.2-.279.24,0,.08-.2.2.24.2" transform="translate(-3.657 -4.254)" fill="#f1f1f1"/>
      <path id="Trazado_566" data-name="Trazado 566" d="M43.55,49.706c0,.12.12.2.359.12s.24-.359-.04-.319c-.04.04-.319.08-.319.2" transform="translate(-3.631 -4.398)" fill="#f1f1f1"/>
      <path id="Trazado_567" data-name="Trazado 567" d="M44.819,49.327c.12-.04.08-.279.08-.439s-.08-.24-.279-.12a.2.2,0,0,0-.12.2c.04.16.2.4.319.359" transform="translate(-3.703 -4.338)" fill="#f1f1f1"/>
      <path id="Trazado_568" data-name="Trazado 568" d="M49.786,46.314c.2-.16.319-.479-.04-.519a.235.235,0,0,0-.24.24c.04.279.08.479.279.279" transform="translate(-4.079 -4.119)" fill="#f1f1f1"/>
      <path id="Trazado_569" data-name="Trazado 569" d="M50.409,46.6a.74.74,0,0,0,.4.08c.16-.04.08-.279-.04-.319s-.559.24-.359.24" transform="translate(-4.143 -4.161)" fill="#f1f1f1"/>
      <path id="Trazado_570" data-name="Trazado 570" d="M51.4,45.507c.4.08.479-.4.319-.359-.04,0-.719.279-.319.359" transform="translate(-4.211 -4.07)" fill="#f1f1f1"/>
      <path id="Trazado_571" data-name="Trazado 571" d="M50.489,45.371c.2,0,.359-.08.24-.2s-.319-.319-.319-.2c-.04.04-.12.4.08.4" transform="translate(-4.143 -4.055)" fill="#f1f1f1"/>
      <path id="Trazado_572" data-name="Trazado 572" d="M48.93,17.355c-.04-.439-.12-.519-.16-.479a6,6,0,0,0,0,1.2c.12.04.2-.279.16-.719" transform="translate(-4.021 -1.946)" fill="#f1f1f1"/>
      <path id="Trazado_573" data-name="Trazado 573" d="M42.722,20.167c-.24.04-.319-.319-.319-.559s-.24-.359-.319-.08c0,0,.04,1,.519.958.6-.04.758-.359.519-1.118,0,0-.12-.24-.319-.08s.16.878-.08.878" transform="translate(-3.521 -2.124)" fill="#f1f1f1"/>
      <path id="Trazado_574" data-name="Trazado 574" d="M43.55,19.062s-.08,1.078.359,1.118c.6.04.8-.279.679-1.158a.214.214,0,0,0-.319-.12c-.2.16.04.958-.2.958s-.279-.4-.24-.639c.08-.279-.12-.439-.279-.16" transform="translate(-3.631 -2.096)" fill="#f1f1f1"/>
      <path id="Trazado_575" data-name="Trazado 575" d="M45.1,18.712s-.12,1.118.319,1.118c.559,0,.719-.319.639-1.2,0,0-.08-.279-.279-.12s.04.958-.2,1c-.24,0-.24-.4-.2-.679,0-.24-.16-.439-.279-.12" transform="translate(-3.747 -2.066)" fill="#f1f1f1"/>
      <path id="Trazado_576" data-name="Trazado 576" d="M46.528,18.039V19a.6.6,0,0,0,.6.679c.679,0,.519-.878.519-1.277,0-.359-.04-.958-.24-.918-.16.04-.24.24-.2.639,0,.4.08.918-.12.878-.2,0-.2-.319-.2-.719s-.319-.719-.359-.24" transform="translate(-3.855 -1.992)" fill="#f1f1f1"/>
      <path id="Trazado_577" data-name="Trazado 577" d="M48.524,16.982s-.4-.359-.4.2-.16,2.116.758,2.2c.918.04.758-1.118.758-1.876s.16-1.517-.16-1.317c-.279.2-.319.439-.359.958s.12,1.4-.16,1.437-.439-.04-.4-.838a3.471,3.471,0,0,0-.04-.758" transform="translate(-3.974 -1.892)" fill="#f1f1f1"/>
      <path id="Trazado_578" data-name="Trazado 578" d="M50.674,17.488c-.04-.878,0-1.517-.16-1.517,0,0-.319-.04-.319.4s-.2,2.2.4,2.435c.6.279,1.4.12,1.4-.519V15.812c0-.359-.359-.559-.439-.04s.24,2.635-.24,2.595c-.519,0-.6,0-.639-.878" transform="translate(-4.128 -1.84)" fill="#f1f1f1"/>
      <path id="Trazado_579" data-name="Trazado 579" d="M51.1,16.174s-.16,1.557.04,1.637c.24.08.12-1.038.12-1.4.04-.359-.12-.519-.16-.24" transform="translate(-4.194 -1.883)" fill="#f1f1f1"/>
      <path id="Trazado_580" data-name="Trazado 580" d="M48.624,41.192c.4.04,1.557-2.635,1.836-4.351a11.1,11.1,0,0,1,.719-2.914,23.828,23.828,0,0,0,.8-5.509c0-1.6.08-3.034,0-3.273s-.16-.319-.439-.12-.6.08-.559.8a41.176,41.176,0,0,1-.16,5.868c-.24.719-.479,1.8-.679,2.555-.2.719-.439,1.557-.279.04s.479-1.557.479-2.475c.04-.918.24-2,.2-3.313s.08-2.994.08-2.994-.679-.878-.679-.08.04,4.95,0,5.509a10.84,10.84,0,0,0-.2,1.956c.08.559-.2.758-.24,1.637-.04.918-.279,4.391-.758,5.309-.439.918-.479,1.317-.12,1.357" transform="translate(-3.994 -2.55)" fill="#f1f1f1"/>
      <path id="Trazado_581" data-name="Trazado 581" d="M47.98,36.985c.279-.2,1.437-2.874,1.477-6.986.08-4.112.239-4.551.04-4.87-.16-.319-.559-.4-.479.439s-.16,6.746-.439,6.786c-.24.2.2-5.07.08-7.106v-.04s-.359-.958-.4-.24c-.04.758-.04,3.992-.12,4.231A7.716,7.716,0,0,0,47.82,31.8a24.591,24.591,0,0,1,.08,4.152c-.16.679-.2,1.237.08,1.038" transform="translate(-3.949 -2.535)" fill="#f1f1f1"/>
      <path id="Trazado_582" data-name="Trazado 582" d="M47.486,27.715c.08-.878.279-2.595.24-3.034a.375.375,0,0,0-.519.359c-.04.319-.04,1.677-.12,2.156s-.08,2.515-.359,2.475-.12-1-.04-1.876a8.864,8.864,0,0,0,.16-2.994s-.4-.439-.439-.04a9.7,9.7,0,0,1-.08,1.637,3.216,3.216,0,0,0-.24,1.4,5.141,5.141,0,0,1-.12,2.116,4.017,4.017,0,0,0-.24,1.437,7.936,7.936,0,0,1-.679,2.515c-.479.758.519.958,1.557-1.916a9.431,9.431,0,0,0,.878-4.231" transform="translate(-3.735 -2.526)" fill="#f1f1f1"/>
      <path id="Trazado_583" data-name="Trazado 583" d="M44.661,24.789a21.151,21.151,0,0,1-.279,3.832c-.24.479-.279,1.477-.439,1.756-.12.279-.639,1.557-.878,1.956s-.2.878.24.559a7.206,7.206,0,0,0,2.036-3.673c.2-1.557.439-2.555.519-2.994s.2-1.557.04-1.637c-.12-.08-.4-.16-.4.24a11.445,11.445,0,0,1-.359,2.595c-.24.719-.24,1-.279.08-.04-.878.16-2.635.04-3.074.08,0-.24-.08-.24.359" transform="translate(-3.584 -2.514)" fill="#f1f1f1"/>
      <path id="Trazado_584" data-name="Trazado 584" d="M43.089,24.293s-.04.4-.04,1.637a10.624,10.624,0,0,1-1.237,4.112c-.439,1,.16.719.519.4a9.076,9.076,0,0,0,1.357-2.2,25.012,25.012,0,0,0,.639-3.912.322.322,0,0,0-.479-.04c-.12.16-.24.24-.319.04-.08-.16-.439-.04-.439-.04" transform="translate(-3.489 -2.497)" fill="#f1f1f1"/>
      <path id="Trazado_585" data-name="Trazado 585" d="M42.495,27.357a18.82,18.82,0,0,0,.279-2.914c0-.359-.16-.639-.24.04-.04.679-.24.359-.359-.2-.12-.6-.319,1.118-.24,1.717a16.132,16.132,0,0,1-.719,3.154c-.24.958,1.078-1.277,1.277-1.8" transform="translate(-3.454 -2.487)" fill="#f1f1f1"/>
      <path id="Trazado_586" data-name="Trazado 586" d="M42.853,21.374c-.08.758.04,1.078-.2,1s0-1.237-.2-1.237-.16.439-.2.758-.08,1.238.4,1.238c.8,0,.6-1.517.6-1.8-.04-.279-.319-.719-.4.04" transform="translate(-3.532 -2.253)" fill="#f1f1f1"/>
      <path id="Trazado_587" data-name="Trazado 587" d="M44.554,20.884c-.2,0-.279.04-.279.479.04.439.08.878-.16.8-.2-.04-.16-.559-.12-.958,0-.4-.16-.4-.16-.4s-.2-.04-.2.359c0,.439-.08,1.836.359,1.836.439.04.679-.359.719-1.277.04-.838.04-.838-.16-.838" transform="translate(-3.637 -2.242)" fill="#f1f1f1"/>
      <path id="Trazado_588" data-name="Trazado 588" d="M45.541,23.389c.758.08.6-1.237.639-1.6,0-.319.08-1.078-.08-1.118-.2,0-.16.2-.16.559s-.04,1.2-.24,1.237c-.2,0-.279-.4-.2-1.038.04-.6.04-.719-.04-.719,0,0-.279,0-.279.479-.04.519-.359,2.116.359,2.2" transform="translate(-3.746 -2.232)" fill="#f1f1f1"/>
      <path id="Trazado_589" data-name="Trazado 589" d="M47.764,20.544c-.2-.04-.359,0-.359.439s.04,1.8-.2,1.8-.319-.4-.319-1.078.2-1.078.04-1.118c0,0-.359-.2-.4.479s-.12,2.475.4,2.595c.559.08.878-.6.838-1.437,0-.878.24-1.637,0-1.677" transform="translate(-3.853 -2.221)" fill="#f1f1f1"/>
      <path id="Trazado_590" data-name="Trazado 590" d="M48.617,20.362s-.279-.04-.319.519.04,1.557.04,2.036.04.918.519,1c.479.04.8-.719.8-1.517s.2-2.076-.12-2.156c-.319-.04-.24.24-.2.559,0,.319,0,2.315-.359,2.275s-.4-.918-.319-1.8c.16-1.078-.04-.918-.04-.918" transform="translate(-3.987 -2.199)" fill="#f1f1f1"/>
      <path id="Trazado_591" data-name="Trazado 591" d="M49.063,20.717s-.12-.08-.12.439-.12,1.4.08,1.4c.2.04.04-.479.12-.958.04-.439.04-.878-.08-.878" transform="translate(-4.034 -2.235)" fill="#f1f1f1"/>
      <path id="Trazado_592" data-name="Trazado 592" d="M52.074,19.939c-.279-.04-.4-.08-.4.479,0,.6-.04,2.315-.04,2.315s.04.679-.4.679c-.479,0-.479-.279-.479-.918s.16-2.315-.24-2.4c0,0-.319,0-.319.559,0,.6.04,2.235.04,2.515a1.02,1.02,0,0,0,.918,1.078c.8.12,1-1.038,1.038-2.116-.04-1.038.16-2.156-.12-2.2" transform="translate(-4.131 -2.175)" fill="#f1f1f1"/>
      <path id="Trazado_593" data-name="Trazado 593" d="M51.257,20.588s-.2-.08-.2.4-.12,2,.08,2c.16,0,.2-.08.2-.519-.04-1.158.12-1.836-.08-1.876" transform="translate(-4.193 -2.225)" fill="#f1f1f1"/>
      <path id="Trazado_594" data-name="Trazado 594" d="M41.749,5.207l.24-1.8c.04-.279-.04-.439-.359-.479l-.439-.04-.359,2.675.4.04c.359,0,.479-.12.519-.4m-.639.16.12-1,.24.04.04-.24-.24-.04.16-1h.12c.16.04.2.08.2.24l-.24,1.836c-.04.16-.08.2-.24.16Z" transform="translate(-3.427 -0.896)" fill="#f1f1f1"/>
      <path id="Trazado_595" data-name="Trazado 595" d="M18.777,19.678a.311.311,0,0,1-.359-.319V19h.719a.481.481,0,1,0,0-.958H17.78v.24s.2-.04.2.2v1.038a.232.232,0,0,1-.24.16v.2h1ZM18.9,18.2a.258.258,0,0,1,.24.24.23.23,0,0,1-.24.24h-.479v-.519H18.9Z" transform="translate(-1.692 -2.034)" fill="#f1f1f1"/>
      <path id="Trazado_596" data-name="Trazado 596" d="M15.811,31.764h1.038a.232.232,0,0,1,.16.24h.2v-1h-.16a.311.311,0,0,1-.319.359H16.41v-.719a.523.523,0,0,0-.479-.519.5.5,0,0,0-.479.519V32h.24c-.08-.04-.12-.24.12-.24m-.24-.878a.24.24,0,1,1,.479,0v.479h-.519l.04-.479Z" transform="translate(-1.52 -2.942)" fill="#f1f1f1"/>
      <path id="Trazado_597" data-name="Trazado 597" d="M34.689,40.538a.18.18,0,0,1-.279.08c-.2-.16-.838-.6-.838-.6a.273.273,0,0,1,0-.319l-.16-.12-.639.918-.24.319a.565.565,0,0,0,.08.8.479.479,0,0,0,.559,0,.476.476,0,0,0,.2.359.52.52,0,0,0,.719-.16l.4-.559.08-.08.12-.16.24-.319Zm-1.677.639a.262.262,0,0,1-.04-.4l.279-.4a.22.22,0,0,1,.2.08c.08.04.16.12.279.2l-.319.439a.318.318,0,0,1-.4.08m1.078.319a.256.256,0,1,1-.4-.319l.279-.359a4.588,4.588,0,0,1,.4.319Z" transform="translate(-2.794 -3.652)" fill="#f1f1f1"/>
      <path id="Trazado_598" data-name="Trazado 598" d="M21.5,18a.961.961,0,1,0,1.038.958A.967.967,0,0,0,21.5,18m0,1.6c-.16,0-.439-.319-.439-.679s.24-.679.439-.679c.16,0,.439.319.439.679s-.24.679-.439.679" transform="translate(-1.896 -2.031)" fill="#f1f1f1"/>
      <path id="Trazado_599" data-name="Trazado 599" d="M24.564,19.675a.311.311,0,0,1-.359-.319V19h.319l.519.838a.615.615,0,0,0,.6-.24l-.08-.12s-.24.16-.319-.04c-.08-.12-.2-.359-.279-.479a.523.523,0,0,0,.519-.479A.5.5,0,0,0,24.964,18H23.606v.24s.2-.04.2.2v1.038a.232.232,0,0,1-.24.16v.2h.958Zm.08-1.477a.258.258,0,0,1,.24.24.23.23,0,0,1-.24.24h-.479v-.519h.479Z" transform="translate(-2.13 -2.031)" fill="#f1f1f1"/>
      <path id="Trazado_600" data-name="Trazado 600" d="M15.8,27.863h1.038a.232.232,0,0,1,.16.24h.2v-1h-.16a.311.311,0,0,1-.319.359h-.4v-.319l.838-.519a.615.615,0,0,0-.24-.6l-.12.08s.16.24-.04.319a5.09,5.09,0,0,0-.479.279.523.523,0,0,0-.479-.519.5.5,0,0,0-.479.519v1.357h.24c.04,0-.04-.2.24-.2m-.279-.878a.24.24,0,1,1,.479,0v.479h-.479Z" transform="translate(-1.51 -2.634)" fill="#f1f1f1"/>
      <path id="Trazado_601" data-name="Trazado 601" d="M26.144,45.249a.36.36,0,0,1,.279.439c-.04.08-.04.2-.08.319l-.319-.08-.279-.958a.692.692,0,0,0-.639.04l.04.16s.279-.08.319.12a3.151,3.151,0,0,1,.12.519.523.523,0,0,0-.639.319.473.473,0,0,0,.359.6l.958.279.319.08.08-.24s-.2,0-.12-.24.279-1,.279-1a.251.251,0,0,1,.279-.12l.04-.2-.958-.279Zm-.679,1.078a.252.252,0,0,1,.319-.16l.479.12a3.329,3.329,0,0,1-.16.479l-.479-.12a.251.251,0,0,1-.16-.319" transform="translate(-2.232 -4.053)" fill="#f1f1f1"/>
      <path id="Trazado_602" data-name="Trazado 602" d="M37.852,20.412s.04.2-.2.2H36.615a.232.232,0,0,1-.16-.24h-.2v1h.16a.311.311,0,0,1,.319-.359h.359v.319l-.838.519a.615.615,0,0,0,.24.6l.12-.08s-.16-.24.04-.319c.12-.08.359-.2.479-.279a.523.523,0,0,0,.479.519.5.5,0,0,0,.479-.519V20.412Zm.04,1.078a.24.24,0,1,1-.479,0v-.479h.519v.479Z" transform="translate(-3.083 -2.209)" fill="#f1f1f1"/>
      <path id="Trazado_603" data-name="Trazado 603" d="M29.88,19.678h-.24l.679-1,1,1.158.878-.918.519.758h-.319v.16h1.277v-.16h-.2l-.838-1.237v-.4h-.4v.279l-.679.719-.838-1H29.8v.279h.24v.04l-.878,1.317h-.2v.16h.918Z" transform="translate(-2.535 -2.034)" fill="#f1f1f1"/>
      <path id="Trazado_604" data-name="Trazado 604" d="M35.71,19.559h-.16V18.321h.16v-.279h-.878v.279h.16v1.237h-.16v.279h.878Z" transform="translate(-2.976 -2.034)" fill="#f1f1f1"/>
      <path id="Trazado_605" data-name="Trazado 605" d="M15.645,25.407h1.237v.12h.279v-.838h-.279v.12H15.645v-.12h-.279v.838h.279Z" transform="translate(-1.514 -2.534)" fill="#f1f1f1"/>
      <path id="Trazado_606" data-name="Trazado 606" d="M15.645,21.5l1.557-1-1.557-1.237v-.319h-.279v.878h.279v-.24l.878.679-.878.559v-.08h-.279v1.038h.279Z" transform="translate(-1.514 -2.102)" fill="#f1f1f1"/>
      <path id="Trazado_607" data-name="Trazado 607" d="M15.525,24.1h.4v-.16h-.2v-.519h1.158v.319h.279V22.5h-.279v.319H15.725v-.479h.2v-.16h-.559V24.1Z" transform="translate(-1.514 -2.345)" fill="#f1f1f1"/>
      <path id="Trazado_608" data-name="Trazado 608" d="M15.645,29.637h1.237v.16h.279v-.878h-.279v.16H15.645v-.16h-.279V29.8h.279Z" transform="translate(-1.514 -2.851)" fill="#f1f1f1"/>
      <path id="Trazado_609" data-name="Trazado 609" d="M32.748,42.929c-.04,0-.08-.04-.12-.08l-.758-.8c-.04-.04-.04-.04-.04-.08a.478.478,0,0,1,.16-.16l-.16-.16-1.357,1.277.24.479.16-.16a.63.63,0,0,1,0-.279c0-.04,0-.08.04-.08l.559-.519.8.838a.574.574,0,0,1,.08.12l-.319.319.16.16.878-.8-.16-.16a.437.437,0,0,0-.16.08" transform="translate(-2.649 -3.808)" fill="#f1f1f1"/>
      <path id="Trazado_610" data-name="Trazado 610" d="M19.013,40.483l.918-.6c.04-.04.08-.04.08,0a.689.689,0,0,0,.12.16l.2-.12-1-1.6-.479.12.12.2c.08-.04.279.04.279.04a.086.086,0,0,1,.08.08l.4.639-.958.639a.575.575,0,0,1-.12.08l-.24-.359-.2.12.639,1,.2-.12c-.08-.08-.08-.16-.12-.2-.04,0,.04-.04.08-.08" transform="translate(-1.728 -3.558)" fill="#f1f1f1"/>
      <path id="Trazado_611" data-name="Trazado 611" d="M20.039,40.59l.16.2c.08-.04.12-.08.16-.08a.139.139,0,0,0,.08-.04c.04,0,.12.12.16.12l.319.439-.479.359L20,41.029l-.2.16.439.559-.359.279-.4-.479v-.12a.039.039,0,0,1,.04-.04l.08-.12-.16-.2-.319.4,1,1.237.16-.12c-.04-.04-.08-.08-.08-.12-.04-.04-.04-.04-.04-.08a.039.039,0,0,1,.04-.04l.958-.758c.04-.04.04-.04.08-.04a1.18,1.18,0,0,1,.12.16l.16-.12L20.478,40.27Z" transform="translate(-1.796 -3.704)" fill="#f1f1f1"/>
      <path id="Trazado_612" data-name="Trazado 612" d="M16.861,36.532l1.158-.4h.08l.08.16.2-.08-.519-1.6-.519.04.08.24h.24c.04,0,.08.16.08.2l.16.519-.559.2-.24-.679-.24.08.24.679-.439.16-.2-.559v-.04a.039.039,0,0,1,.04-.04l.04-.04.12-.08-.08-.24-.439.279.519,1.517.2-.08a.309.309,0,0,1-.04-.12v-.08c0-.04,0-.04.04-.04" transform="translate(-1.572 -3.279)" fill="#f1f1f1"/>
      <path id="Trazado_613" data-name="Trazado 613" d="M16.259,34.457c.2,0,.359-.24.479-.6.04-.12.04-.24.08-.359a.875.875,0,0,1,.12-.319.3.3,0,0,1,.16-.08c.04,0,.08.04.12.08s.04.12.08.24a1.231,1.231,0,0,1-.04.4.931.931,0,0,1-.359.279l.12.319a4.478,4.478,0,0,1,.519-.2,2.237,2.237,0,0,0,.04-.719,1.214,1.214,0,0,0-.279-.758.552.552,0,0,0-.439-.24.407.407,0,0,0-.319.2,1.347,1.347,0,0,0-.16.479c0,.04-.04.12-.08.359a.875.875,0,0,1-.12.319c0,.04-.04.04-.08.04-.08,0-.16-.08-.2-.24a3.384,3.384,0,0,1,0-.639c.04-.04.2-.12.319-.2l-.08-.279a1.523,1.523,0,0,1-.519.16,1.948,1.948,0,0,0-.04.679,2.554,2.554,0,0,0,.2.758.577.577,0,0,0,.479.319" transform="translate(-1.529 -3.12)" fill="#f1f1f1"/>
      <path id="Trazado_614" data-name="Trazado 614" d="M37.57,26.43c.08.04.04.04,0,0,.08.08.12.08.12.08a.175.175,0,0,1,.04.12v.679L36.413,26.15s-.2-.24-.2.16v1.8l.479.16v-.359c-.12-.04-.08-.08-.12-.12s-.04-.08-.04-.16v-.559l1.317,1.118s.2.12.2-.16v-1.8l-.519-.12v.319Z" transform="translate(-3.08 -2.638)" fill="#f1f1f1"/>
      <path id="Trazado_615" data-name="Trazado 615" d="M36.575,22.992v-.16h-.319v.758h.319v-.16h0l.319.16v.8c-.24.16-.319.16-.319.16V24.23h-.319v1.2h.319v-.16c0-.04.04-.04.08-.08l1.437-.838v-.519l-1.477-.8-.04-.04m.559.8.4.2-.4.24Z" transform="translate(-3.083 -2.394)" fill="#f1f1f1"/>
      <path id="Trazado_616" data-name="Trazado 616" d="M36.575,28.906v-.16h-.319V29.5h.319v-.2h0l.319.16v.8c-.24.16-.319.16-.319.16V30.1h-.319v1.237h.319v-.16c0-.04.04-.04.08-.08l1.437-.838V29.7l-1.517-.8h0m.559.758.4.2-.4.24Z" transform="translate(-3.083 -2.838)" fill="#f1f1f1"/>
      <path id="Trazado_617" data-name="Trazado 617" d="M30.062,43.7l-.16-.279-.639.4.16.279a.494.494,0,0,0,.12-.08h0l.04.359-.679.439-.319-.16.279-.16-.16-.279-1.038.639.16.279c.08-.04.12-.08.16-.08s.04,0,.12.04l1.477.758.439-.279L29.9,43.94v-.08a.312.312,0,0,1,.16-.16m-.878,1.237.359-.24.04.439Z" transform="translate(-2.438 -3.941)" fill="#f1f1f1"/>
      <path id="Trazado_618" data-name="Trazado 618" d="M24.29,43.978l-.2.24a.494.494,0,0,1,.12.08h0l-.319.16-.639-.479a3.251,3.251,0,0,0,.04-.359,1.69,1.69,0,0,0,.279.2l.16-.24-1-.719-.16.24q.12.06.12.12v.12l-.12,1.677.439.319,1.477-.719h.08a.574.574,0,0,1,.12.08l.2-.24Zm-1.078.8.04-.479.359.24Z" transform="translate(-2.055 -3.899)" fill="#f1f1f1"/>
      <path id="Trazado_619" data-name="Trazado 619" d="M35.116,36.924a.413.413,0,0,0,.04-.16l-.279-.12-.319.679.279.12c.04-.08.04-.12.08-.12h0l.2.279-.279.679a3.251,3.251,0,0,1-.359.04l.12-.279-.279-.12-.479,1.118.279.12c.04-.08.08-.12.08-.16a.175.175,0,0,1,.12-.04l1.637-.2.2-.479-1-1.317a.039.039,0,0,1-.04-.04M35.6,38.2l-.439.04.16-.4Z" transform="translate(-2.902 -3.432)" fill="#f1f1f1"/>
      <path id="Trazado_620" data-name="Trazado 620" d="M37.339,34.1c0,.04-.04.04-.04.08a.2.2,0,0,1-.12-.04L36.1,33.859a.139.139,0,0,1-.08-.04.7.7,0,0,1,.04-.2l-.24-.04-.24.878.24.04c0-.08.04-.08.04-.12a.039.039,0,0,1,.04-.04h.08l.439.12-.2.8-.439-.12c-.04,0-.04-.04-.08-.04a.4.4,0,0,1,.04-.16l-.24-.08-.24.918.2.04a.309.309,0,0,0,.04-.12c0-.04.04-.04.04-.08h.08L36.7,35.9a.4.4,0,0,1,.12.04.7.7,0,0,1-.04.2l.24.08.24-.918-.24-.08c0,.08-.04.08-.04.12a.039.039,0,0,1-.04.04.2.2,0,0,1-.12-.04l-.359-.08.2-.8.359.08a.4.4,0,0,1,.12.04.4.4,0,0,1-.04.16l.24.08.24-.918-.2.08a.309.309,0,0,0-.04.12" transform="translate(-3.009 -3.202)" fill="#f1f1f1"/>
    </g>
  </g>
</svg>
