<svg xmlns="http://www.w3.org/2000/svg" xmlns:xlink="http://www.w3.org/1999/xlink" width="56" height="57" viewBox="0 0 56 57">
  <defs>
    <clipPath id="clip-path">
      <rect id="Rectángulo_72" data-name="Rectángulo 72" width="56" height="57" transform="translate(-0.056 0)" fill="#f1f1f1"/>
    </clipPath>
  </defs>
  <g id="Logo_CCH" data-name="Logo CCH" transform="translate(0.055)" clip-path="url(#clip-path)">
    <g id="logo-cch" transform="translate(0.686 -0.109)">
      <g id="Grupo_142" data-name="Grupo 142" transform="translate(0 0)">
        <path id="Trazado_331" data-name="Trazado 331" d="M2.079,26.254l.277-.555a2.715,2.715,0,0,1,.693.555,1.091,1.091,0,0,1,.069.832,1.356,1.356,0,0,1-.555.9,1.588,1.588,0,0,1-1.179.208,1.885,1.885,0,0,1-1.109-.555A1.494,1.494,0,0,1,0,26.532,1.137,1.137,0,0,1,.484,25.7a1.118,1.118,0,0,1,.624-.208l.069.624a.986.986,0,0,0-.416.139,2.309,2.309,0,0,0-.208.416.747.747,0,0,0,.139.555,1.3,1.3,0,0,0,.763.347,1.561,1.561,0,0,0,.832-.069c.208-.069.277-.277.347-.485a.88.88,0,0,0-.069-.416A.8.8,0,0,0,2.079,26.254Z" transform="translate(0.02 -2.331)" fill="#f1f1f1"/>
        <path id="Trazado_332" data-name="Trazado 332" d="M3.1,19.194a1.285,1.285,0,0,1,.485.139,1.279,1.279,0,0,1,.9.763A2.023,2.023,0,0,1,4.556,21.2a1.64,1.64,0,0,1-.763.9,1.2,1.2,0,0,1-.693.069v-.624a1.028,1.028,0,0,0,.485-.069A.685.685,0,0,0,4.071,21,.821.821,0,0,0,4,20.3a.914.914,0,0,0-.693-.485c-.069,0-.208-.069-.277-.069l.069-.555Zm-.416,2.912a1.18,1.18,0,0,0,.485.069v-.624c-.069,0-.139-.069-.277-.069-.347-.139-.555-.277-.624-.485A.8.8,0,0,1,2.2,20.3a.733.733,0,0,1,.416-.485.76.76,0,0,1,.555,0v-.624a2.844,2.844,0,0,0-.763.069,1.64,1.64,0,0,0-.763.9,2.6,2.6,0,0,0-.069.693c0,.139.069.277.069.485a1.451,1.451,0,0,0,.277.416A4.037,4.037,0,0,0,2.684,22.106Z" transform="translate(-0.1 -1.858)" fill="#f1f1f1"/>
        <path id="Trazado_333" data-name="Trazado 333" d="M6.476,16.92,4.049,15.256l.277-.485,2.08,1.387.832-1.248.416.277Z" transform="translate(-0.286 -1.526)" fill="#f1f1f1"/>
        <path id="Trazado_334" data-name="Trazado 334" d="M9.647,12.522,7.5,10.442,9.092,8.847l.277.347L8.26,10.373l.485.485,1.04-1.109.347.347-1.04,1.04.624.624,1.109-1.179.416.347Z" transform="translate(-0.545 -1.081)" fill="#f1f1f1"/>
        <path id="Trazado_335" data-name="Trazado 335" d="M14.333,7.034l-.277-.416,1.109-.763.693.971a1.366,1.366,0,0,1-.277.555,3.964,3.964,0,0,1-.485.555,2.057,2.057,0,0,1-.763.277,1.372,1.372,0,0,1-.763-.139,2.111,2.111,0,0,1-.555-.555,3,3,0,0,1-.347-.832.909.909,0,0,1,.139-.763c.069-.208.277-.347.485-.555a1.441,1.441,0,0,1,.832-.347.768.768,0,0,1,.693.347l-.416.416a.986.986,0,0,0-.416-.139.509.509,0,0,0-.416.139.707.707,0,0,0-.347.555.869.869,0,0,0,.208.763c.208.277.416.485.693.485a1.25,1.25,0,0,0,.693-.069l.277-.277a.53.53,0,0,0,.139-.347l-.208-.277Z" transform="translate(-0.932 -0.793)" fill="#f1f1f1"/>
        <path id="Trazado_336" data-name="Trazado 336" d="M19.023,5.825,17.844,3.051l.555-.277,1.179,2.774Z" transform="translate(-1.323 -0.624)" fill="#f1f1f1"/>
        <path id="Trazado_337" data-name="Trazado 337" d="M23.645,1.05a1.4,1.4,0,0,1,.763.208,1.356,1.356,0,0,1,.624,1.04,1.658,1.658,0,0,1-.139,1.179,1.532,1.532,0,0,1-.9.693h-.347V3.685h.208a.861.861,0,0,0,.555-.416,1.092,1.092,0,0,0,.069-.832,1.293,1.293,0,0,0-.347-.693.986.986,0,0,0-.416-.139l-.069-.555ZM22.189,2.991a1.337,1.337,0,0,0,.693.971,1.262,1.262,0,0,0,.763.277V3.685a.986.986,0,0,1-.416-.139.951.951,0,0,1-.347-.693,1.665,1.665,0,0,1,0-.832.618.618,0,0,1,.555-.347h.208V1.05H23.3a1.044,1.044,0,0,0-.555.277,2.353,2.353,0,0,0-.416.416,1.285,1.285,0,0,0-.139.485A1.368,1.368,0,0,0,22.189,2.991Z" transform="translate(-1.645 -0.495)" fill="#f1f1f1"/>
        <path id="Trazado_338" data-name="Trazado 338" d="M31.158.519a1.028,1.028,0,0,1,.485.069c.139.069.347.139.416.277s.208.347.277.485a1.932,1.932,0,0,1,.069.693,1.14,1.14,0,0,1-.139.693c-.069.208-.139.416-.347.485a2.308,2.308,0,0,1-.416.208.754.754,0,0,0-.347.069V3.016H31.3c.069,0,.139-.069.208-.069a.36.36,0,0,0,.139-.277,1.352,1.352,0,0,0,.069-.555V1.559a.36.36,0,0,0-.139-.277.36.36,0,0,0-.277-.139h-.208V.519ZM29.979.45,29.84,3.5h1.318V3.016h-.693L30.534,1h.555V.519h-.069Z" transform="translate(-2.224 -0.45)" fill="#f1f1f1"/>
        <path id="Trazado_339" data-name="Trazado 339" d="M35.613,4.112,36.307,1.2l2.15.485-.139.485-1.526-.347-.139.693,1.387.277-.069.555-1.456-.416-.208.832,1.664.347-.139.555Z" transform="translate(-2.658 -0.506)" fill="#f1f1f1"/>
        <path id="Trazado_340" data-name="Trazado 340" d="M44.237,6.495l.416.485a1.4,1.4,0,0,1-.763.416,1.251,1.251,0,0,1-.832-.208,1.237,1.237,0,0,1-.624-.832,1.569,1.569,0,0,1,.277-1.179,1.736,1.736,0,0,1,.9-.832,1.565,1.565,0,0,1,1.109.139,1.074,1.074,0,0,1,.555.763V5.94L44.722,5.8V5.385a.692.692,0,0,0-.277-.347.737.737,0,0,0-.555-.069c-.347,0-.485.208-.693.485a1.477,1.477,0,0,0-.277.832c0,.208.139.347.347.485a.88.88,0,0,0,.416.069A1.094,1.094,0,0,0,44.237,6.495Z" transform="translate(-3.168 -0.739)" fill="#f1f1f1"/>
        <path id="Trazado_341" data-name="Trazado 341" d="M46.86,9.642,48.8,7.423l.416.416-1.942,2.219Z" transform="translate(-3.503 -0.974)" fill="#f1f1f1"/>
        <path id="Trazado_342" data-name="Trazado 342" d="M49.634,12.358l2.219-2.011,1.456,1.734-.416.347-1.04-1.248-.485.416.971,1.179-.416.277-.9-1.109-.693.485,1.109,1.318-.347.347Z" transform="translate(-3.711 -1.193)" fill="#f1f1f1"/>
        <path id="Trazado_343" data-name="Trazado 343" d="M53.008,16.762l2.635-1.318L55.92,16l-1.248,2.011,1.8-.9.208.485-2.635,1.318-.277-.485,1.179-1.942-1.664.832Z" transform="translate(-3.965 -1.576)" fill="#f1f1f1"/>
        <path id="Trazado_344" data-name="Trazado 344" d="M56.874,23.815v.624a1.246,1.246,0,0,1-.763-.208,1.77,1.77,0,0,1-.485-.693,1.248,1.248,0,0,1,.139-1.109,1.337,1.337,0,0,1,.971-.693,1.532,1.532,0,0,1,1.248.069,1.349,1.349,0,0,1,.693.9,1.524,1.524,0,0,1-.069.971,1.2,1.2,0,0,1-.416.416l-.277-.555a.541.541,0,0,0,.277-.277.586.586,0,0,0,0-.485c-.069-.208-.139-.347-.347-.416a1.665,1.665,0,0,0-.832,0,1.081,1.081,0,0,0-.693.416.665.665,0,0,0-.139.624.461.461,0,0,0,.277.347C56.527,23.815,56.666,23.815,56.874,23.815Z" transform="translate(-4.156 -2.042)" fill="#f1f1f1"/>
        <path id="Trazado_345" data-name="Trazado 345" d="M56.457,28.024l2.982-.208v.624l-2.982.208Z" transform="translate(-4.224 -2.506)" fill="#f1f1f1"/>
        <path id="Trazado_346" data-name="Trazado 346" d="M58.11,32.327l1.318.624-.069.624-1.248.416v-.555l.555-.139-.555-.277v-.693Zm-1.8,2.288,1.8-.555v-.555l-.555.069.069-.832.485.208v-.624l-1.595-.763v.693l.693.277-.069,1.179-.693.208Z" transform="translate(-4.212 -2.788)" fill="#f1f1f1"/>
        <path id="Trazado_347" data-name="Trazado 347" d="M56.477,37.788l-.139.555a1.028,1.028,0,0,0-.485.069.637.637,0,0,0-.277.416.436.436,0,0,0,0,.416.958.958,0,0,0,.208.277c.069.069.139,0,.208,0s.139-.069.208-.139c0-.069.139-.208.277-.416a1.316,1.316,0,0,1,.485-.555.8.8,0,0,1,.693-.069A.461.461,0,0,1,58,38.62a.986.986,0,0,1,.139.416,1.92,1.92,0,0,1-.069.624,1.566,1.566,0,0,1-.555.763.8.8,0,0,1-.693.069l.139-.555h.347a.741.741,0,0,0,.208-.347.442.442,0,0,0,0-.416.149.149,0,0,0-.139-.139H57.17a1.725,1.725,0,0,0-.347.485,1.914,1.914,0,0,1-.416.555,2.308,2.308,0,0,1-.416.208.592.592,0,0,1-.485,0,1.451,1.451,0,0,1-.416-.277,3.382,3.382,0,0,1-.208-.485,1.508,1.508,0,0,1,.139-.693,2.066,2.066,0,0,1,.485-.763A1.32,1.32,0,0,1,56.477,37.788Z" transform="translate(-4.105 -3.255)" fill="#f1f1f1"/>
        <path id="Trazado_348" data-name="Trazado 348" d="M52.38,44.685l1.04.693h2.011L55.084,46,53.7,45.934l.624,1.248-.416.555-.832-1.872-1.04-.693Z" transform="translate(-3.891 -3.773)" fill="#f1f1f1"/>
        <path id="Trazado_349" data-name="Trazado 349" d="M48.518,49.334l2.011,2.15-.416.416-.832-.832-.832.832.763.832-.416.416L46.785,51l.416-.416.9.9.832-.832-.9-.9Z" transform="translate(-3.497 -4.123)" fill="#f1f1f1"/>
        <path id="Trazado_350" data-name="Trazado 350" d="M45.474,55.665l-.485.277-.763-1.387a4.106,4.106,0,0,0-.277-.416A.36.36,0,0,0,43.671,54a.88.88,0,0,0-.416.069.541.541,0,0,0-.277.277c0,.069-.069.208,0,.277a1.9,1.9,0,0,0,.277.485l.763,1.387-.624.347-.763-1.387-.347-.693c0-.139-.069-.277,0-.416a.6.6,0,0,1,.208-.416,1.019,1.019,0,0,1,.416-.347c.277-.139.485-.208.624-.277a.88.88,0,0,1,.416.069.59.59,0,0,1,.347.208,2.42,2.42,0,0,1,.416.624Z" transform="translate(-3.156 -4.421)" fill="#f1f1f1"/>
        <path id="Trazado_351" data-name="Trazado 351" d="M38.762,55.557l.763,2.912-.832.277-1.109-1.872.069,2.15-.9.208-.763-2.843.555-.208.624,2.358-.069-2.5.555-.208,1.179,2.15L38.207,55.7Z" transform="translate(-2.686 -4.59)" fill="#f1f1f1"/>
        <path id="Trazado_352" data-name="Trazado 352" d="M31.51,57.669h.555l.208-.693.624-.069-.9,3.12-.485.069v-.9l.069.208.347-1.179H31.51v-.555Zm-1.595-.485L31.3,60.1h.139v-.9l-.416-.9h.416v-.624l-.624.069-.347-.693Z" transform="translate(-2.23 -4.692)" fill="#f1f1f1"/>
        <path id="Trazado_353" data-name="Trazado 353" d="M26.847,56.959,26.43,60.01l-.555-.069-.9-2.219L24.7,59.733l-.555-.069.347-2.982.624.069.9,2.08.277-1.942Z" transform="translate(-1.796 -4.675)" fill="#f1f1f1"/>
        <path id="Trazado_354" data-name="Trazado 354" d="M21.319,55.765l-.971,2.843-.555-.208.971-2.843Z" transform="translate(-1.469 -4.59)" fill="#f1f1f1"/>
        <path id="Trazado_355" data-name="Trazado 355" d="M16.2,56.93l-.208-.139v-.763l.9-1.595-.347-.208a1.172,1.172,0,0,0-.347-.139h-.208v-.555H16.2a.922.922,0,0,1,.485.208l.971.555L16.2,56.93Zm-.277-.139v-.763l-.069.139-.208-.139a4.106,4.106,0,0,1-.416-.277.36.36,0,0,1-.139-.277.31.31,0,0,1,0-.347,2.517,2.517,0,0,1,.208-.485.71.71,0,0,1,.347-.416.36.36,0,0,1,.277-.139h.069v-.555h-.277a.953.953,0,0,0-.555.347,3.016,3.016,0,0,0-.416.485,4.781,4.781,0,0,0-.277.693.76.76,0,0,0,0,.555.523.523,0,0,0,.277.485,4.728,4.728,0,0,0,.485.347Z" transform="translate(-1.065 -4.438)" fill="#f1f1f1"/>
        <path id="Trazado_356" data-name="Trazado 356" d="M10.926,49.467l.277.277-.208.693.9.763.624-.347.485.416-2.08,1.179v-.693l.485-.277-.485-.416V49.467Zm-.208-.208L9.747,52.31l.485.416.763-.416v-.693l-.485.277.416-1.109.139.069V49.259Z" transform="translate(-0.714 -4.117)" fill="#f1f1f1"/>
        <path id="Trazado_357" data-name="Trazado 357" d="M6.843,45.435H7.19a.6.6,0,0,1,.416.208,1.177,1.177,0,0,1,.416.416l.693.9-1.8,1.318v-.763l1.04-.763-.347-.347c-.069-.139-.139-.277-.208-.277-.069-.069-.139-.069-.277-.069H6.843v-.624Zm-.624,3.328.555-.416v-.763L6.219,48l-.139-.208a4.106,4.106,0,0,0-.277-.416.417.417,0,0,1-.069-.277,1.172,1.172,0,0,1,.139-.347,2.64,2.64,0,0,1,.416-.347.881.881,0,0,1,.485-.277h0v-.555a.417.417,0,0,0-.277.069,4.088,4.088,0,0,0-.555.277,1.6,1.6,0,0,0-.485.485.787.787,0,0,0-.208.555,1.723,1.723,0,0,0,.069.555c.069.069.139.277.277.485Z" transform="translate(-0.376 -3.83)" fill="#f1f1f1"/>
        <path id="Trazado_358" data-name="Trazado 358" d="M5.486,41.967,2.851,43.215l-.9-2.011.416-.277.693,1.526.555-.277L2.99,40.788l.485-.208L4.1,41.967l.763-.347L4.1,40.1l.485-.208Z" transform="translate(-0.128 -3.413)" fill="#f1f1f1"/>
        <path id="Trazado_359" data-name="Trazado 359" d="M2.74,37.06l-.208-.555c.139-.069.347-.208.347-.347a.586.586,0,0,0,0-.485.494.494,0,0,0-.208-.416.52.52,0,0,0-.347-.069c-.069,0-.139,0-.139.069a.3.3,0,0,0-.069.208v.485a1.259,1.259,0,0,1-.139.763.733.733,0,0,1-.485.416.879.879,0,0,1-.416-.069c-.139,0-.277-.139-.416-.277s-.139-.208-.139-.416a1.634,1.634,0,0,1,0-.832.672.672,0,0,1,.555-.485l.139.555a.958.958,0,0,0-.277.208v.416a.494.494,0,0,0,.208.416.417.417,0,0,0,.277.069.149.149,0,0,0,.139-.139,5.377,5.377,0,0,0,.069-.624,1.932,1.932,0,0,1,.069-.693.6.6,0,0,1,.208-.416c.069-.139.277-.139.416-.277a1.18,1.18,0,0,1,.485.069.57.57,0,0,1,.416.277,1.307,1.307,0,0,1,.277.624,1.278,1.278,0,0,1-.069.9A1.042,1.042,0,0,1,2.74,37.06Z" transform="translate(-0.017 -3.013)" fill="#f1f1f1"/>
        <path id="Trazado_360" data-name="Trazado 360" d="M9.6,33.807l6.657,13.452H35.947L47.042,32.975,29.429,10.647,26.1,14.876,44.754,32.212,36.294,46.7,42.6,31.727,20.553,13.282l.139,6.1L40.454,31.727l-4.3,14.839,2.08-14.909L13.757,18.413v6.38l22.19,7.142V46.5L33.8,32.281,9.944,25.971l2.982,5.478,18.653,1.595,4.369,14.077L29.429,33.807Z" transform="translate(-0.703 -1.216)" fill="#f1f1f1"/>
      </g>
      <path id="Trazado_361" data-name="Trazado 361" d="M57.718,55.782a1.733,1.733,0,0,1,.971.277,1.5,1.5,0,0,1,.693.763,2.571,2.571,0,0,1,.277.971,1.592,1.592,0,0,1-.277.971,1.626,1.626,0,0,1-.763.763,2.257,2.257,0,0,1-.971.277,1.592,1.592,0,0,1-.971-.277,1.5,1.5,0,0,1-.693-.763,2.257,2.257,0,0,1-.277-.971,1.592,1.592,0,0,1,.277-.971,1.626,1.626,0,0,1,.763-.763,1.9,1.9,0,0,1,.971-.277Zm0,.277a1.4,1.4,0,0,0-.763.208,1.419,1.419,0,0,0-.555.555,1.768,1.768,0,0,0,0,1.664,1.074,1.074,0,0,0,.555.555,1.581,1.581,0,0,0,.763.208,1.4,1.4,0,0,0,.763-.208,1.074,1.074,0,0,0,.555-.555,1.768,1.768,0,0,0,0-1.664,1.074,1.074,0,0,0-.555-.555,1.4,1.4,0,0,0-.763-.208Zm-.832,2.7v-2.08h.693c.208,0,.416,0,.485.069.139,0,.208.069.277.208a.52.52,0,0,1,.069.347.986.986,0,0,1-.139.416.6.6,0,0,1-.416.208A.149.149,0,0,1,58,58.07a1.066,1.066,0,0,1,.277.416l.277.416h-.416l-.208-.347a1.725,1.725,0,0,0-.347-.485C57.51,58,57.44,58,57.3,58h-.208v.9l-.208-.139Zm.347-1.179h.416c.208,0,.347,0,.416-.069s.069-.139.069-.277c0-.069,0-.069-.069-.139,0-.069-.069-.069-.139-.069h-.763v.555Z" transform="translate(-4.167 -4.607)" fill="#f1f1f1"/>
    </g>
  </g>
</svg>
