<?xml version="1.0" encoding="UTF-8"?><svg id="uuid-0240aad2-bb53-4604-bfc9-9186a43dcd52" xmlns="http://www.w3.org/2000/svg" viewBox="0 0 372.14 7.97"><rect y=".09" width="372.14" height="6.47" fill="none" stroke-width="0"/><path d="m372.05,5.66c.2-.21.08-.68-.45-.6l-.38.8.83-.21Z" fill="#f87553" stroke-width="0"/><path d="m368.42,4.17c-.63.39-1.37,1.07-.96,1.81.63-.78.78-.45,1.46-1.37.54-.1.94.26.85.56.19-.21.84.18,1.13-.33-.7-.62-1.59-.64-2.52-.13-.2-.17,0-.39.04-.53Z" fill="#f87553" stroke-width="0"/><path d="m315.67,2.92l.34.1c-.1-.06-.21-.09-.34-.1Z" fill="#f87553" stroke-width="0"/><path d="m282.98,2.47c.25-.02.35-.1.37-.17-.23.06-.42.11-.37.17Z" fill="#f87553" stroke-width="0"/><path d="m277.4,1.59c.12.02.22.04.33.05-.13-.07-.25-.11-.33-.05Z" fill="#f87553" stroke-width="0"/><path d="m315.67,2.91l-.87-.26c-.07.27.44.19.87.26Z" fill="#f87553" stroke-width="0"/><path d="m361.15,6.11c.18-.04.34-.11.47-.21-.15.04-.3.06-.45.09,0,.04-.01.07-.02.12Z" fill="#f87553" stroke-width="0"/><path d="m330.08,2.26h.27c.08-.1.15-.21.22-.33l-.49.33Z" fill="#f87553" stroke-width="0"/><path d="m341.13,2.14c-.25-.02-.34.66-.43.95.14-.28.33-.41.55-.47,0-.12-.03-.28-.12-.47Z" fill="#f87553" stroke-width="0"/><path d="m358.67,3.34l.31-.1c-.08.04-.22.06-.31.1Z" fill="#f87553" stroke-width="0"/><path d="m322.16,2.11c-.02-.1-.06-.19-.1-.24,0,.09.04.17.1.24Z" fill="#f87553" stroke-width="0"/><path d="m12.87,7.24s0-.09,0-.12c-.07.07-.08.12,0,.12Z" fill="#f87553" stroke-width="0"/><path d="m.05,3.86l.18-.04c.02-.13.04-.26.04-.39l-.22.43Z" fill="#f87553" stroke-width="0"/><path d="m267.19.7s.03.01.05.01c.26-.07.11-.06-.05-.01Z" fill="#f87553" stroke-width="0"/><path d="m173.43,1.21c1.06.61-1.73.78-.13,1.46-.15-.27,1.45-1.06.13-1.46Z" fill="#f87553" stroke-width="0"/><path d="m360.86,6.01c-.15.01-.3.01-.45.01.2.02.34.02.45-.01Z" fill="#f87553" stroke-width="0"/><path d="m173.3,2.67s0,.01,0,0l.17.07c-.07-.02-.11-.05-.17-.07Z" fill="#f87553" stroke-width="0"/><path d="m243.65,1.12c.05.12.14.21.24.3,0-.07-.06-.16-.24-.3Z" fill="#f87553" stroke-width="0"/><path d="m261.19,2.09l-.43-.1c.16.07.3.1.43.1Z" fill="#f87553" stroke-width="0"/><path d="m234.55,2.09c-.24-.05-.32-.15-.64-.06.03.04.06.06.1.09.12-.1.27-.13.54-.02Z" fill="#f87553" stroke-width="0"/><path d="m225.08,2.09c.05.05.12.1.17.13.09-.01.2-.02.3-.04l-.47-.1Z" fill="#f87553" stroke-width="0"/><path d="m41.66,6.91c-.21-.19-.34-.4-.44-.62.15.5-1.24.67.44.62Z" fill="#f87553" stroke-width="0"/><path d="m361.14,5.72c-.06.17-.14.26-.28.29.11-.01.21-.02.32-.04.02-.1.03-.19-.04-.26Z" fill="#f87553" stroke-width="0"/><path d="m234.17,7.47l-1.51-.1c.42.06.97.1,1.51.1Z" fill="#f87553" stroke-width="0"/><path d="m109.63,6.81l-.35.09c.14.01.26,0,.35-.09Z" fill="#f87553" stroke-width="0"/><path d="m228.19,7.47c-.27-.24-.55-.38-.85-.47-.06.05-.13.1-.17.18l1.02.29Z" fill="#f87553" stroke-width="0"/><path d="m41.22,6.29s0,.01,0,0t0,0Z" fill="#f87553" stroke-width="0"/><path d="m31.31,7.92c1.43.02.67-.87.98-1.4,1.71-.26.79.66,1.37,1.12,1.07-.24,1.89-1.06,2.69-1.03.06.15.21.21.03.39,1.13-.72,3.35-.04,4.67-.94.1.09.15.16.17.22-.21-.45-.25-.91-.2-1.23.64-.01,1.19-.57,1.44.02-.39-.01-.43.22-.61.4l.67-.26c.61.84-.92.29-.92.91,1.31-.28,2.84-.97,3.85-.73.21.83-2.35.28-1.01,1.01l-1.56-.32c1.19,1.3-.95-.09.15,1.3,2.05.24,2.29-.43,4.34-.18.46-.46-.15-.68.31-1.14,2.91-.83,2.29,2.08,4.42.97.55-.55.77-1.59,2.29-1.04l-.52.94c1.98.1,1.13-1.34,3.21-.72-.37.36-1.56.3-1.26.43,1.35.74.95-.53,1.99-.53l.21.83c2.11-.13,4.44-.73,6.78-.87-.13.24-.53.5.02.75,2.95-.41,6.3.1,9.15.6l1.09-.72c.25.01.47.33.2.46,1.11.27.06-.45.59-.73.63-.05.83.41.43.62,1.96-.61,5.58-1.3,7.64-.53l-.4.21c1.61.29,1.81-1.46,3.3-.8l-.29.12c3.49.3,7.34-.34,10,.73.51-1.03,3.45.46,3.67-.97,1.99.7,1.42.97,4.22,1.45.75.06,1.12-.9,2.04-1.04l.02.75,1.26-.79.67.9.87-.19c-.35-.05-.74-.34-.68-.55,1.36-.34,3.31.52,3.34.9l3.21-.63c-.07.3-.61.4-1.03.6,1.71-.77.31.79,1.88.09-.21-.17.11-.45.15-.6.78.45,2.56.46,3.88.27l-.25.51c2.38.13,5.02-.24,7.69-.24-.96-.24-.74-1.13.05-1.23l.31.79c.51-.49-.82-.3.22-.9,1,.1.67.9.1,1.15l1.21-.28c.07.23-.21.36-.29.66.5-.49,2.09.79,2.81-.06l.07.23c2.67.01,3.88-.27,6.06-.3.04-.68.89-.53,1.54-1.08,1.6.22,3.37.75,5.3.69,1.35-.34.4-.58,1-.98.1.62,2.02.56,1.03,1.01,2.31-.1,2.95-.12,5.88-.63-.32-.26-.67-.36-.49-.58.53-.1,1.21.26,1.13.56l-.14.06c3.28-.94,7.57,1.81,10.19.52l-.15.06,2.7-.58c1.25.11-.75.46.17.85,2.92-1.04,4.62.15,7.03-.55,1.86,1.83,6.61-.13,9.13,1.04l-.15-.44c.65-.43.79.24,1.27.35-.07-.34-.71-.39-.3-.62,5.51-.52,11.37.63,17.01,1.02,2.06.12,1.17-2.23,3.77-1.2l-.74.8c4.17-.96,8.52.04,12.6-.79-.24.18-.25.43-.65.43.86.58,3.19.02,3.2-.45.64.05.15.43.54.67.86.34,2.17-.74,2.63-.17.08.1-.24.19-.4.23.56-.28,2.62.07,2.08-.6,1.53.32,2.93-.3,4.15.1.8-.75,2.62.36,2.87-.7-.11,1.09,2.68.89,3.65.36-.32.33.84.34.46.8,1.1-.01,2.12-.22,1.92-.79,2.04,1.31,4.09-1.06,5.24.63,3.28-.6,6.32-1,9.27-1.25-.11,1.09-3.26.11-3.14,1.26,2.8-.45,4.42-1.4,7.19-1.13.72.15-.41.47-.65.67,2.8-.45,5.41.1,7.9-.5-.01.1-.28.22-.53.29.49-.04,1.14.16,1.09-.34l-.48.13c-.78-.73,1.95-1.51,2.04-1.89-.83,1.43,2.46.36,1.14,2.16.32-.1.73-.33.65-.67.48.1.63.29.15.67,1.76-.27,1.13-.8,2.73-.79,0,.24-.33.34-.49.62.81-.47,1.62-.94,2.96-.74-.08.15.08.34-.33.33,2.31-.07,3.94-1.25,6.47-.8-.75,1.04.86.34,1,1.25l1.36-.27-.55-.44c1.19.01,2.25-.64,3.28-.35l-.89.38,2.24-.17-1.27-.34c1.21-.46-.13-1.14,1.46-.9-.32.1,1.19.01,1.82.55.59-.29,1.2-.6,2.08-.36.23.29-.18,1.01-.04,1.19.58-.75,2.8-.21,3.53-1.02-.25.19-.26.67-.18.77l.49-.62c.55.19.63.29.54.67,1.66.11-.53-1.15,1.45-.66-.15.05-.08.15-.4.23,1.98.26,3.83-.39,5.65-.09.54.91-1.59.22-.98,1,2.63-.17,5.44-1.09,7.98-.87l-.47-.1c.35-1.29,1.89.63,3.18.02-.31.1-.41.72-.33.57,1.74.21,3.56-.32,6.2-.72l-.33.33c1.03.29,2.7.17,3.81.32.33-.33.96-.28.58-.75,3.42,1.88,6.52-1.01,9.55.56-.36,0-.86.29-.58.29l2.58-.3c-.2-.56-.34-.34-.88-.78.33-.33,1.06-.6,1.7-.6-1.16.38.01.9.51,1.21-.08-.17.09-.36.05-.53,1.35,1,.23-1.13,2.07-.46l-.1.29c.69-.15,1.32-.53,2.07-.46.31.64-.73.3-.78.84,1.04-.04,2.06-1.23,3.01-.58-.44.18-1.08.18-1.53.36,1.03.77,1.15.57,1.91.69h-.08s1.77.33,1.77.33l-.45-.21c1.31-1.69,2.66-.3,4.42-1.42-1.71,1.04-.28.61-.41,1.35.45.21,1.13.44.94.64.83-.6,1.39.47,2.56-.4.05.24.89.02.7.62,1.08-.18-.26-.41-.16-.7,1.67-.81,3.92.98,6.32-.13,2.07-.46,2.45-1.25,4.37-1.65.65.38-.53.86-.53.86,1.05.35,1.83.28,2.82.01-.2.21.01.38.31.64.79-.06.53-.86,1.57-.51-.18.27-.41.69-.79.95.93-.22,1.85-.66,2.82-.87.26.41-.58.63-.92.9,1.08-.18,2.81-.38,3.14-1.03l-.7-.23c.39-.04.2.56-.09.68-.93.51-1.34-.23-1.39-.46l.69-.16c-.71-1.38-2.76.22-4.14.15l.58-1.01-1.42.84c-.3-.27-.51-.83.17-.98-.99-.5-.88.36-1.73-.19-.09-.09-.05-.13.04-.17l-.97.3c.19-.21-.16-.72.43-.57-1.74-.58-2.8.75-3.46-.01l.15-.06c-2.41.34-.23.74-2.04,1.62l-1.22-1.83-.24.74c-.25-.02-.74-.09-.65-.38-.93.51.16.33-.38.8-1.2-.68-3.3.32-3.57-.86-.43.56,1.15.44-.13.83-.36-1.28-1.48.22-2.57-.36.34-.66,1.37-.3.28-.9-.66,1.11-2.13-.24-3.05-.04-.04.89-2.01.36-3.55.67.1-.29-2.91-.49-4.35-.8l.04-.15c-.28.89-1.76.73-2.85.91.04-.53.24-.74.82-.98h-1.02c-.24.29-.56.44-1.22.53l.26-.67c-1.35.04-2.73.79-4.47.34-.1.62,1.39,1.74-.46,2.15-.07-.34-.14-.91.35-1.04-.16.05-.56.28-.88.13l.74-.57c-.79-.24-.41.47-1.05.43.01-.47-.47-.34-.38-.73.16-.05.55.19.8.01-.71-.09-1.58-.36-1.86-.73.06.27,0,.64-.52.7-1.35.04-.46-.58-1.25-.83-.33.33-1.19-.01-1.21.7-.4,0-.47-.34-.62-.53-.7.32-3.27.09-2.48.85l.18.05s-.07.01-.11.04h0,0c-2.3.72-4.77-.4-7.05-.1v-.24c-1.36.28-3.03.16-4,.68-.4,0-.95-.44-.78-.73-1.04.18-1.16.45-2.66.05,1.05-.41-.36-.38,1.07-.3-1.35-.21-1.66-.6-3.11.06.49-.62-1.02-.78-1.66-.6l.95.44c-.72.09-1.35.04-1.99-.01l.35-.81c-2.76-.98-4.98,1.68-7.09.02-.73.57,1.5.4.85,1.06-1.27-.11-2.6-1.26-2.99-1.28-1.74-.45-1.62,1.18-3.45.87.23.29.45,1.06-.91,1.32-1.27-.11-1.56-1.21-.76-1.45.31-.02.45.07.44.17.41-.11.95-.23.45-.55l-.17.29c-.63-.29-2.38-.27-1.97-.74-.96.28-.41.47.3.62-1.63-.41-2.55-.01-4.23-.29.27.16.51.5.25.5-2.46-.35-1.08.55-2.75.67-.95-.44.34-1.04-1.34-.68-1.03-.29-.22-.77.19-1-1.53.56-2.86-.36-3.74-.46l.81-.23c-.48.13-.88.13-1.28.13l.46.57c-.47-.1-.87-.1-.87-.34-.49.38.37.96-.59,1.47-.63-.29-1.92.32-2.14-.45,1.99.26-.22-.77,1.46-.89-.32.1-.72.09-1.19-.01-.07-.09.07-.16.2-.21-1.9-.68-.87.86-2.84.85.25-.44-.46-.81-.78-.73.79.01.38.72-.35,1.04-1.26-.34-1.37.26-2.03.21l.75.16c-.26.44-.89.38-1.77.51-.08-.34.8-.23.49-.38-.98.75-2.21-.79-3.57-.28-.63-.29-.06-.81-.62-1.01-1.53.56-1.65-.6-3.26-.13.46.58.54.44-.59,1.01l2.64-.41-1.69.84c.8.01,1.68-.36,2.16-.27-.81.47-.72.33-.34.81-1.09-.87-2.16.51-3.42-.09l.04-1.43c-1.89-.64-3.36.74-5.82.38l.79.26c-.33.57-1.52.09-2.31.32.07-.47-.42-.66-.76-.95.04.35-1.8-.04-2.02.92l-1.1-.63c-1.99-.26-2.27,1.37-4.17,1.2.57-.52-.29-.86.99-1.24-.64,0-1.21-.1-1.22.24-.37-.3-1.77.64-2.35.19-.27.21-.36.72-1.07.67-.08-.1,0-.23,0-.23,0,.23-1.12.33-.49.85-1.96-1.49-5.49.11-7.2-1.18-1.39.16-3.07.32-4.33.35.08-.15,0-.24.24-.19-1.74-.45-1.07,1.37-3.05.87-1.01-.78,1.05-.43.42-.72-.27-1.58-2.39.22-3.73-.7l.32-.1c-1.02-.53-2.49.6-4.15.49,0,0,.08-.13,0-.24-1.14.8-3.3,1.07-4.9,1.3.5-.62.73-.33.42-.96-.72.09.21,1.01-1.22,1.18-.47-.34-1.5-.63-1.64-1.3l1.35-.04c-.69-.86-1.75.02-2.46-.12l.09-.38c-2.07.12-2.1,1.08-4.33,1.01l.23.29c-1.22.95-1.02-.53-2.23.17l-.37-.96c-.8.23-2.81.92-4.25,1.11.82-.72,2.5-1.07,3.54-1.49-.8-.01-2.71.07-3.12.55.32-.1.73-.33,1.04-.18-.98.75-2.26,1.13-3.85,1.11.28-1.86-4.14-.47-5.29-1.91-2.81.69-5.57-.29-8.84-.18,1.16,1.45-.95.04-.75,1.53-.76.1-1.05.07-1.12-.02l-2.31-.89c-.55-.44.72-.33.65-.66-1.67-.11-.7-.63-1.8-1.02.23.53-.58.77-1.53.56l1.34.68c-2.33.79-2.01-1.25-4.36-.46l.74-.46c-1.21.28-4.45-.01-5.63,1.18-.21-.17-.49-.58.04-.68-2.88-.18-6.41,1.28-8.65.53l.22-.36c-.54.11-.94.68-1.61.32.03-.15.22-.36-.03-.39-.28.12-1.43.63-2.14.43l.61-.41c-2.81-.47-4.31,1-6.67,1.24.01-1.07-2.2-1.42-3.31-1.59l.04-.15c-3.27-.13-5.56.89-8.59,1.31-1.88-1.17-6.37-.49-9.39-1.14.46.19-.08.84-.61.94-.71-.22-1.96.74-1.85-.24l.25.02c-.53-.96-1.99-.7-3.13-.73l-.19,1.29C112.43,0,107.61,2.55,105.98.89c-.72.32-1.61.32-2.32.63l.04-.69c-1.99-.17-2.98-.27-5.45-.1l.5-.49c-1.39-.05-1.75,1.98-3.03,2.03l-.39-1.03c-2.42.01-4.87-.89-7.26.05.04-.15.11-.45.5-.49-1.14-.02-4.41-.69-3.99.72-.03-.92-2.5-.09-3.81.32l.2-.68c-1.1.86-1.14,1.11-2.68,1.34-.37-.09-.32-.55.17-.36-1.22-.35-.95.64-2.42.28l.55-.44c-1.25-.05-1.15.18-1.84.68-.79.27-2.38-.17-2.56-.78-.19.49-.87.98-1.61.81-.1-.23.17-.38.3-.45-2.09-.46-3.11.79-4.55.12-.03-.22-.12-.34-.24-.4,1.66.01,3,.05,2.88.1,0-.62-1.34-.73-.27-1.59-1.08.47-2.92,1.49-4.23,1.2-.06-.06-.13-.12-.17-.22l.14-.07c-.3-.06-.57,0-.83.1-.42-.1-.68-.18-1.08-.18-.15-.51-1.54-.28-2.21-.3.06.68-.82.57,0,1.14-.11-.05.13-.09.57-.11.1-.02.22-.02.29-.07-.01.02-.03.04-.05.06.44-.02,1.01-.04,1.67-.05-.53.35-1.08.64-1.82.26-.34.44-.72.89-.94,1.11-.92-.95-2.68-1.47-2.93-2.05-2.05.39-4.82.26-6.11,1.53-.58.17-.67-.36-.89-.57.34-.13.74-.11.92-.29-1.16.33-3.45.13-3.72,1.02-1.47-.4.82-.83-1.19-.68l.27-.28c-3.96-1.43-6.44,2.28-10.84.45.3.11.46.17.52.32-5.01-.81-10.32.77-15.26-.52-1.4-.26-1.56.32-2.41.75l-.3-.73-1.47.85c-2.08.62-3.6-1.8-6.23-.63l.34.5c-.97-.1-3.02.29-2.87-.28-.09.09-.31.51-.67.26l-.03-.39-2.33.67c-1.8-.28.29-1.53-2.34-1.6C1.52,1.77-.28,2.74.09,3c.39.02,1,.24,1.03.63l-.89.19c-.16,1.13-.85,2.28,1.34,3.09l1.53-.69.49.55-1.28.04c.73.51,1.19.05,1.71-.26.12.29.34.5.64.61l1.5-1.08c.18.44-.67.87.33,1.12.7-.5-.67-1,.49-1.32.73.51.52.94,1.37.5.12.29-.06.47-.4.61.76-.35,2.02-.15,2.41-.75.76.63,2.58-.17,2.5.91.24-.26,1.34-.84,2.05-.89-1.28,1.29,2.62.07,2.29,1.45.95-1.15,3.42-.51,5.1-1.15-.09.1-.28.28-.43.22.95.1,1.22.44,1.83.66.12-.95,1.59-1.17,2.39-1.76,1.16.92-.7,1.12-.34,2-.06-.78,2.01-.77,1.62-1.41.89.57.76.28,1.22,1.07.16-1.19.83-.21,1.56-.94,1.28.58.33,1.12,1.74.75.67.36-.58.79-.58.79Zm33.5-2.06h0c-.29.02-.53.04-.69.05.14,0,.34-.01.69-.05Zm2.81,0c-.34-.04-.77-.04-1.22-.04-.1-.23.01-.47.29-.46-.15.16.51.29.93.5Zm-5.95-4.74c.45-.1.59.04.66.18-.22,0-.46.02-.79.07,0,.02-.04.06-.05.09.04-.13.09-.26.18-.34Z" fill="#f87553" stroke-width="0"/><path d="m60.87,2.02c-.06.01-.1.05-.18.05.09.06.18.11.27.16.05-.07.11-.15.16-.22-.09,0-.18,0-.25.01Z" fill="#f87553" stroke-width="0"/><path d="m316.07,3.02h-.06c.05.01.09.04.12.09-.04-.04-.04-.06-.06-.09Z" fill="#f87553" stroke-width="0"/><path d="m106.5,7.15v-.17s-.25.15-.25.15l.25.02Z" fill="#f87553" stroke-width="0"/><path d="m331.57,5.37c.03.06.09.12.2.17,0-.04-.09-.1-.2-.17Z" fill="#f87553" stroke-width="0"/><path d="m338.27,5.53l.95.24c-.41-.15-.71-.21-.95-.24Z" fill="#f87553" stroke-width="0"/><path d="m343.42,5.85c.07-.12.08-.21.1-.29h-.01l-.09.29Z" fill="#f87553" stroke-width="0"/><path d="m261.54,6.66c-.07,0-.14.01-.2.04-.46.13-.15.09.2-.04Z" fill="#f87553" stroke-width="0"/><path d="m285.91,5.06c-.26.12-.51.24-.78.33.43.05.76.06.78-.33Z" fill="#f87553" stroke-width="0"/><path d="m234.33,7.48c-.06-.01-.11-.01-.17-.01h.17Z" fill="#f87553" stroke-width="0"/><path d="m283.99,5.38c.43.13.8.11,1.13.01-.35-.05-.77-.12-1.13-.01Z" fill="#f87553" stroke-width="0"/><path d="m365.74,6.17l.25.02s.01-.09.03-.11l-.28.09Z" fill="#f87553" stroke-width="0"/><path d="m366.02,6.08l.28-.09c-.14.01-.24.01-.28.09Z" fill="#f87553" stroke-width="0"/><path d="m366.87,5.83l-.58.17c.2.01.45.02.58-.17Z" fill="#f87553" stroke-width="0"/><path d="m358.92,5.85l-.08.24c.05-.05.07-.13.08-.24Z" fill="#f87553" stroke-width="0"/><path d="m356.85,5.93c.49.06,1.24.52,1.93.38l.06-.19c-.32.36-1.52-.61-1.99-.18Z" fill="#f87553" stroke-width="0"/><path d="m348.2,2.87l1.74.19c-.3-.27-.7-.62.09-.68-2.19-.79.45.6-1.83.49Z" fill="#f87553" stroke-width="0"/><path d="m342.82,2.48c.93-.12,0-.39.04-.53-.59.24-.74.3-.04.53Z" fill="#f87553" stroke-width="0"/><path d="m303.92,2.48l.09-.62c-.71.09,0,.24-.09.62Z" fill="#f87553" stroke-width="0"/><path d="m296.49,5.7l.7.38.33-.57-1.03.19Z" fill="#f87553" stroke-width="0"/><path d="m292.09,1.26l.32-.09-1.2.22.88-.13Z" fill="#f87553" stroke-width="0"/><path d="m226.76,1.48l.22.77c.49-.13.59-1-.22-.77Z" fill="#f87553" stroke-width="0"/><path d="m198.56,2.26c-.31-.39-1.1-.63-1.59-.26.63.06,1.27.36,1.59.26Z" fill="#f87553" stroke-width="0"/><path d="m113.98,1.02l.56-.26-1.06.21.5.05Z" fill="#f87553" stroke-width="0"/></svg>